<svg xmlns="http://www.w3.org/2000/svg" width="335" height="335" viewBox="0 0 335 335"><pattern x="-138.5" y="-228.5" width="125.994" height="125.994" patternUnits="userSpaceOnUse" id="b" viewBox="0 -125.994 125.994 125.994" overflow="visible"><path fill="none" d="M0-125.994h125.994v125.994h-125.994z"/><path fill="#5C86AC" d="M125.994 0h-125.994v-125.994h125.994z"/></pattern><pattern x="-138.5" y="-228.5" width="165.041" height="110.907" patternUnits="userSpaceOnUse" id="a" viewBox="0 -110.907 165.041 110.907" overflow="visible"><path fill="none" d="M0 0h165.042v-110.907h-165.042z"/><path fill="#F2D648" d="M165.042 0h-165.042v-110.907h165.042z"/></pattern><path stroke="url(#a)" stroke-width="1.212" stroke-miterlimit="10" fill="none" d="M44.749 97.75l131.114 74.656M244.63 86.431l-68.767 85.975M89.907 250.021l85.956-77.615M290.997 250.021l-115.134-77.615M292.175 135l-116.312 37.406M34.556 203.927l141.307-31.521"/><path fill="#fff" d="M62.387 97.75c0 9.742-7.896 17.64-17.638 17.64s-17.638-7.897-17.638-17.64c0-9.739 7.896-17.637 17.638-17.637s17.638 7.898 17.638 17.637z"/><path fill="url(#a)" d="M44.749 80.113c9.742 0 17.638 7.897 17.638 17.637 0 9.742-7.896 17.64-17.638 17.64s-17.638-7.897-17.638-17.64c0-9.739 7.896-17.637 17.638-17.637m0-2.098c-10.882 0-19.736 8.853-19.736 19.735 0 10.883 8.854 19.738 19.736 19.738 10.883 0 19.736-8.854 19.736-19.738 0-10.882-8.854-19.735-19.736-19.735z"/><circle fill="#fff" cx="290.997" cy="250.021" r="17.638"/><path fill="url(#b)" d="M290.997 232.385c9.741 0 17.638 7.895 17.638 17.637s-7.896 17.637-17.638 17.637-17.639-7.895-17.639-17.637 7.898-17.637 17.639-17.637m0-3.275c-11.531 0-20.913 9.381-20.913 20.911s9.382 20.911 20.913 20.911c11.53 0 20.912-9.381 20.912-20.911s-9.382-20.911-20.912-20.911z"/><path fill="#fff" d="M175.863 212.035c-21.852 0-39.629-17.777-39.629-39.629 0-21.853 17.777-39.63 39.629-39.63 21.853 0 39.63 17.778 39.63 39.63 0 21.852-17.777 39.629-39.63 39.629z"/><path fill="#495966" d="M175.863 135c20.659 0 37.405 16.747 37.405 37.406 0 20.657-16.746 37.404-37.405 37.404-20.657 0-37.404-16.747-37.404-37.404 0-20.658 16.747-37.406 37.404-37.406m0-4.449c-23.078 0-41.854 18.776-41.854 41.855 0 23.078 18.776 41.854 41.854 41.854 23.079 0 41.854-18.775 41.854-41.854.001-23.079-18.775-41.855-41.854-41.855z"/><circle fill="#fff" cx="89.908" cy="250.021" r="27.521"/><path fill="url(#a)" d="M89.907 222.501c15.201 0 27.521 12.322 27.521 27.521 0 15.201-12.321 27.521-27.521 27.521-15.2 0-27.521-12.319-27.521-27.521.001-15.199 12.322-27.521 27.521-27.521m0-3.274c-16.98 0-30.794 13.814-30.794 30.795s13.814 30.795 30.794 30.795 30.795-13.814 30.795-30.795-13.814-30.795-30.795-30.795z"/><circle fill="#fff" cx="292.174" cy="135" r="10.192"/><path fill="url(#a)" d="M292.174 124.809c5.63 0 10.192 4.564 10.192 10.191 0 5.63-4.562 10.191-10.192 10.191-5.629 0-10.191-4.562-10.191-10.191-.001-5.626 4.562-10.191 10.191-10.191m0-1.212c-6.288 0-11.404 5.116-11.404 11.404s5.116 11.404 11.404 11.404c6.289 0 11.405-5.116 11.405-11.404s-5.116-11.404-11.405-11.404z"/><circle fill="#fff" cx="34.556" cy="203.927" r="10.192"/><path fill="url(#b)" d="M34.556 193.734c5.63 0 10.193 4.564 10.193 10.192 0 5.629-4.563 10.193-10.193 10.193-5.628 0-10.191-4.564-10.191-10.193-.001-5.627 4.562-10.192 10.191-10.192m0-3.274c-7.425 0-13.465 6.041-13.465 13.467s6.041 13.468 13.465 13.468c7.426 0 13.467-6.042 13.467-13.468s-6.042-13.467-13.467-13.467z"/><circle fill="#fff" cx="244.629" cy="86.431" r="28.959"/><path fill="url(#b)" d="M244.629 57.472c15.995 0 28.959 12.967 28.959 28.958 0 15.995-12.964 28.959-28.959 28.959-15.993 0-28.959-12.964-28.959-28.959 0-15.991 12.966-28.958 28.959-28.958m0-3.445c-17.867 0-32.404 14.536-32.404 32.403 0 17.868 14.537 32.404 32.404 32.404s32.404-14.536 32.404-32.404c0-17.867-14.537-32.403-32.404-32.403z"/><path fill="#495966" d="M170.004 171.872c.001-3.234 2.632-5.855 5.869-5.855 3.236.012 5.86 2.64 5.854 5.875-.006 3.236-2.637 5.86-5.874 5.853-3.238-.006-5.858-2.632-5.849-5.873zM165.758 157.24c.562.002 1.126.214 1.556.649.856.861.854 2.25-.002 3.113-7.469 7.435-7.481 15.319-.046 22.786.861.856.859 2.254-.004 3.11-.863.855-2.252.854-3.112-.008-9.201-9.235-9.18-19.811.052-29.011.431-.427.992-.639 1.556-.639zM159.652 146.192c.563.007 1.125.221 1.552.647.862.866.857 2.258-.003 3.117-13.647 13.598-13.679 31.206-.08 44.856.859.855.859 2.255-.008 3.109-.857.858-2.251.858-3.109-.01-15.248-15.3-15.214-35.823.09-51.075.429-.425.993-.644 1.558-.644zM186.021 157.281c.56 0 1.125.214 1.556.642 9.199 9.238 9.182 19.81-.052 29.007-.859.863-2.255.863-3.113-.005-.858-.856-.854-2.254.003-3.109 7.467-7.439 7.48-15.315.043-22.782-.857-.862-.854-2.254.005-3.118.433-.426.995-.635 1.558-.635zM192.167 146.25c.563.005 1.126.222 1.555.652 15.251 15.301 15.212 35.829-.087 51.078-.866.858-2.256.851-3.113-.003-.859-.863-.854-2.26.005-3.114 13.644-13.602 13.675-31.205.078-44.856-.855-.858-.854-2.255.005-3.109.431-.434.993-.648 1.557-.648z"/></svg>