<?xml version="1.0" encoding="utf-8"?>
<!-- Generator: Adobe Illustrator 16.0.4, SVG Export Plug-In . SVG Version: 6.00 Build 0)  -->
<!DOCTYPE svg PUBLIC "-//W3C//DTD SVG 1.1//EN" "http://www.w3.org/Graphics/SVG/1.1/DTD/svg11.dtd">
<svg version="1.1" id="Layer_1" xmlns="http://www.w3.org/2000/svg" xmlns:xlink="http://www.w3.org/1999/xlink" x="0px" y="0px"
	 width="335px" height="335px" viewBox="0 0 335 335" enable-background="new 0 0 335 335" xml:space="preserve">
<pattern  x="-138.5" y="-228.5" width="125.994" height="125.994" patternUnits="userSpaceOnUse" id="New_Pattern_Swatch_1" viewBox="0 -125.994 125.994 125.994" overflow="visible">
	<g>
		<polygon fill="none" points="0,-125.994 125.994,-125.994 125.994,0 0,0 		"/>
		<polygon fill="#5C86AC" points="125.994,0 0,0 0,-125.994 125.994,-125.994 		"/>
	</g>
</pattern>
<g>
	<g>
		<path fill="none" stroke="url(#New_Pattern_Swatch_1)" stroke-width="4.6676" stroke-linecap="square" stroke-miterlimit="10" d="
			M113.345,94.075c2.044-1.588,4.163-3.085,6.35-4.486"/>
		
			<path fill="none" stroke="url(#New_Pattern_Swatch_1)" stroke-width="4.6676" stroke-linecap="square" stroke-miterlimit="10" stroke-dasharray="13.9072,13.9072" d="
			M131.966,83.07c10.38-4.473,21.822-6.95,33.843-6.95c14.486,0,28.131,3.599,40.092,9.95"/>
		<path fill="none" stroke="url(#New_Pattern_Swatch_1)" stroke-width="4.6676" stroke-linecap="square" stroke-miterlimit="10" d="
			M211.91,89.582c1.342,0.86,2.659,1.756,3.949,2.687c0.812,0.586,1.612,1.184,2.401,1.797"/>
		<g>
			<polygon fill="url(#New_Pattern_Swatch_1)" points="208.681,94.637 217.566,93.526 216.451,84.641 220.694,87.939 
				221.809,96.822 212.925,97.936 			"/>
		</g>
	</g>
</g>
<g>
	<g>
		<path fill="none" stroke="url(#New_Pattern_Swatch_1)" stroke-width="4.6676" stroke-linecap="square" stroke-miterlimit="10" d="
			M218.261,237.083c-2.044,1.588-4.163,3.085-6.35,4.486"/>
		
			<path fill="none" stroke="url(#New_Pattern_Swatch_1)" stroke-width="4.6676" stroke-linecap="square" stroke-miterlimit="10" stroke-dasharray="13.9071,13.9071" d="
			M199.641,248.088c-10.381,4.473-21.823,6.95-33.843,6.95c-14.485,0-28.132-3.599-40.093-9.949"/>
		<path fill="none" stroke="url(#New_Pattern_Swatch_1)" stroke-width="4.6676" stroke-linecap="square" stroke-miterlimit="10" d="
			M119.696,241.578c-1.343-0.86-2.659-1.756-3.949-2.687c-0.812-0.586-1.612-1.186-2.402-1.797"/>
		<g>
			<polygon fill="url(#New_Pattern_Swatch_1)" points="122.924,236.502 114.039,237.633 115.176,246.516 110.924,243.226 
				109.791,234.346 118.672,233.213 			"/>
		</g>
	</g>
</g>
<path fill="#364454" d="M131.192,218.634c0,4.297-3.483,7.779-7.779,7.779H70.514c-4.297,0-7.779-3.482-7.779-7.779V112.833
	c0-4.297,3.482-7.779,7.779-7.779h52.899c4.296,0,7.779,3.482,7.779,7.779V218.634z"/>
<rect x="67.013" y="115.765" fill="#FFFFFF" width="59.901" height="99.939"/>
<path fill="#364454" d="M270.264,218.634c0,4.297-3.482,7.779-7.779,7.779h-52.899c-4.296,0-7.779-3.482-7.779-7.779V112.833
	c0-4.297,3.483-7.779,7.779-7.779h52.899c4.297,0,7.779,3.482,7.779,7.779V218.634z"/>
<rect x="206.084" y="115.765" fill="#FFFFFF" width="59.901" height="99.939"/>
<polygon fill="none" stroke="url(#New_Pattern_Swatch_1)" stroke-width="4.6676" stroke-linecap="round" stroke-linejoin="round" stroke-miterlimit="10" points="
	219.661,143.714 219.661,171.513 255.32,171.513 255.32,148.021 237.491,148.021 234.643,143.714 "/>
<g>
	<circle fill="#EAD452" cx="237.591" cy="189.54" r="9.596"/>
</g>
<line fill="none" stroke="#FFFFFF" stroke-width="3.1118" stroke-linecap="round" stroke-linejoin="round" stroke-miterlimit="10" x1="237.59" y1="185.392" x2="237.59" y2="193.688"/>
<line fill="none" stroke="#FFFFFF" stroke-width="3.1118" stroke-linecap="round" stroke-linejoin="round" stroke-miterlimit="10" x1="241.738" y1="189.54" x2="233.441" y2="189.54"/>
<g>
	<circle fill="#EAD452" cx="96.963" cy="189.54" r="9.596"/>
</g>
<line fill="none" stroke="#FFFFFF" stroke-width="3.1118" stroke-linecap="round" stroke-linejoin="round" stroke-miterlimit="10" x1="96.962" y1="185.392" x2="96.962" y2="193.688"/>
<line fill="none" stroke="#FFFFFF" stroke-width="3.1118" stroke-linecap="round" stroke-linejoin="round" stroke-miterlimit="10" x1="101.111" y1="189.54" x2="92.813" y2="189.54"/>
<ellipse fill="none" stroke="url(#New_Pattern_Swatch_1)" stroke-width="4.6676" stroke-linecap="round" stroke-linejoin="round" stroke-miterlimit="10" cx="96.963" cy="146.653" rx="6.613" ry="7.846"/>
<path fill="none" stroke="url(#New_Pattern_Swatch_1)" stroke-width="4.6676" stroke-linecap="round" stroke-linejoin="round" stroke-miterlimit="10" d="
	M96.963,154.499l-17.112,8.609v2.99c0,3.438-0.327,6.225,3.109,6.225h28.006c3.438,0,3.11-2.787,3.11-6.225v-2.99L96.963,154.499z"
	/>
</svg>
