<?xml version="1.0" encoding="utf-8"?>
<!-- Generator: Adobe Illustrator 16.0.4, SVG Export Plug-In . SVG Version: 6.00 Build 0)  -->
<!DOCTYPE svg PUBLIC "-//W3C//DTD SVG 1.1//EN" "http://www.w3.org/Graphics/SVG/1.1/DTD/svg11.dtd">
<svg version="1.1" id="Layer_1" xmlns="http://www.w3.org/2000/svg" xmlns:xlink="http://www.w3.org/1999/xlink" x="0px" y="0px"
	 width="335px" height="335px" viewBox="0 0 335 335" enable-background="new 0 0 335 335" xml:space="preserve">
<filter  id="AI_GaussianBlur_4">
	<feGaussianBlur  stdDeviation="4"></feGaussianBlur>
</filter>
<g>
	<g opacity="0.4" filter="url(#AI_GaussianBlur_4)">
		<circle fill="#A5A5A5" cx="165.487" cy="166.915" r="91.653"/>
	</g>
	<g>
		<g>
			<g>
				<path fill="#BA411F" d="M165.498,244.69c-43.412,0-78.73-35.318-78.73-78.73c0-43.413,35.318-78.732,78.73-78.732
					c43.413,0,78.731,35.319,78.731,78.732C244.229,209.372,208.911,244.69,165.498,244.69z"/>
				<path fill="#FFFFFF" d="M165.498,91.647c41.043,0,74.312,33.271,74.312,74.312c0,41.039-33.269,74.311-74.312,74.311
					c-41.04,0-74.311-33.271-74.311-74.311C91.188,124.919,124.458,91.647,165.498,91.647 M165.498,82.808
					c-45.85,0-83.15,37.302-83.15,83.152c0,45.85,37.301,83.15,83.15,83.15s83.151-37.301,83.151-83.15
					C248.649,120.109,211.348,82.808,165.498,82.808L165.498,82.808z"/>
			</g>
		</g>
	</g>
	<g>
		<g>
			<path fill="#FFFFFF" d="M153.842,165.073c-0.095-6.426,5.053-11.713,11.484-11.81c6.428-0.073,11.719,5.07,11.804,11.496
				c0.082,6.43-5.062,11.72-11.493,11.803C159.206,176.649,153.921,171.51,153.842,165.073z"/>
		</g>
		<g>
			<path fill="#FFFFFF" d="M144.972,136.132c1.116-0.012,2.239,0.393,3.109,1.244c1.724,1.685,1.763,4.446,0.088,6.184
				c-14.614,14.994-14.403,30.655,0.59,45.263c1.737,1.676,1.771,4.451,0.086,6.178c-1.689,1.725-4.451,1.763-6.183,0.08
				c-18.553-18.069-18.831-39.081-0.767-57.63C142.742,136.587,143.851,136.15,144.972,136.132z"/>
		</g>
		<g>
			<path fill="#FFFFFF" d="M132.512,114.371c1.116-0.002,2.241,0.407,3.103,1.236c1.739,1.694,1.769,4.46,0.086,6.192
				c-26.702,27.421-26.238,62.399,1.185,89.105c1.731,1.675,1.772,4.456,0.078,6.178c-1.679,1.729-4.447,1.771-6.179,0.071
				c-30.747-29.934-31.295-70.7-1.35-101.458C130.275,114.84,131.387,114.387,132.512,114.371z"/>
		</g>
		<g>
			<path fill="#FFFFFF" d="M185.222,135.607c1.113-0.017,2.243,0.391,3.11,1.23c18.551,18.075,18.833,39.075,0.766,57.62
				c-1.681,1.738-4.451,1.782-6.183,0.083c-1.729-1.675-1.763-4.453-0.089-6.178c14.609-14.999,14.401-30.642-0.596-45.254
				c-1.729-1.687-1.763-4.453-0.086-6.192C182.994,136.057,184.103,135.623,185.222,135.607z"/>
		</g>
		<g>
			<path fill="#FFFFFF" d="M197.102,113.511c1.12-0.007,2.241,0.406,3.108,1.249c30.753,29.937,31.288,70.715,1.356,101.463
				c-1.695,1.732-4.456,1.759-6.185,0.089c-1.736-1.688-1.767-4.464-0.085-6.187c26.696-27.426,26.23-62.396-1.186-89.106
				c-1.729-1.68-1.766-4.455-0.086-6.175C194.869,113.969,195.98,113.528,197.102,113.511z"/>
		</g>
	</g>
</g>
</svg>
