<?xml version="1.0" encoding="utf-8"?>
<!-- Generator: Adobe Illustrator 16.0.4, SVG Export Plug-In . SVG Version: 6.00 Build 0)  -->
<!DOCTYPE svg PUBLIC "-//W3C//DTD SVG 1.1//EN" "http://www.w3.org/Graphics/SVG/1.1/DTD/svg11.dtd">
<svg version="1.1" id="Layer_1" xmlns="http://www.w3.org/2000/svg" xmlns:xlink="http://www.w3.org/1999/xlink" x="0px" y="0px"
	 width="335px" height="335px" viewBox="0 0 335 335" enable-background="new 0 0 335 335" xml:space="preserve">
<pattern  x="-138.5" y="-228.5" width="125.994" height="125.994" patternUnits="userSpaceOnUse" id="New_Pattern_Swatch_1" viewBox="0 -125.994 125.994 125.994" overflow="visible">
	<g>
		<polygon fill="none" points="0,-125.994 125.994,-125.994 125.994,0 0,0 		"/>
		<polygon fill="#5C86AC" points="125.994,0 0,0 0,-125.994 125.994,-125.994 		"/>
	</g>
</pattern>
<pattern  x="-138.5" y="-228.5" width="165.041" height="110.907" patternUnits="userSpaceOnUse" id="New_Pattern_Swatch_12" viewBox="0 -110.907 165.041 110.907" overflow="visible">
	<g>
		<polygon fill="none" points="0,0 165.042,0 165.042,-110.907 0,-110.907 		"/>
		<polygon fill="#F2D648" points="165.042,0 0,0 0,-110.907 165.042,-110.907 		"/>
	</g>
</pattern>
<g>
	<g>
		
			<line fill="none" stroke="url(#New_Pattern_Swatch_12)" stroke-width="1.2125" stroke-miterlimit="10" x1="44.749" y1="97.75" x2="175.863" y2="172.406"/>
		
			<line fill="none" stroke="url(#New_Pattern_Swatch_12)" stroke-width="1.2125" stroke-miterlimit="10" x1="244.63" y1="86.431" x2="175.863" y2="172.406"/>
		
			<line fill="none" stroke="url(#New_Pattern_Swatch_12)" stroke-width="1.2125" stroke-miterlimit="10" x1="89.907" y1="250.021" x2="175.863" y2="172.406"/>
		
			<line fill="none" stroke="url(#New_Pattern_Swatch_12)" stroke-width="1.2125" stroke-miterlimit="10" x1="290.997" y1="250.021" x2="175.863" y2="172.406"/>
		
			<line fill="none" stroke="url(#New_Pattern_Swatch_12)" stroke-width="1.2125" stroke-miterlimit="10" x1="292.175" y1="135" x2="175.863" y2="172.406"/>
		
			<line fill="none" stroke="url(#New_Pattern_Swatch_12)" stroke-width="1.2125" stroke-miterlimit="10" x1="34.556" y1="203.927" x2="175.863" y2="172.406"/>
		<g>
			<path fill="#FFFFFF" d="M62.387,97.75c0,9.742-7.896,17.64-17.638,17.64c-9.742,0-17.638-7.897-17.638-17.64
				c0-9.739,7.896-17.637,17.638-17.637C54.491,80.113,62.387,88.011,62.387,97.75z"/>
			<path fill="url(#New_Pattern_Swatch_12)" d="M44.749,80.113c9.742,0,17.638,7.897,17.638,17.637
				c0,9.742-7.896,17.64-17.638,17.64c-9.742,0-17.638-7.897-17.638-17.64C27.111,88.011,35.007,80.113,44.749,80.113
				 M44.749,78.015c-10.882,0-19.736,8.853-19.736,19.735c0,10.883,8.854,19.738,19.736,19.738c10.883,0,19.736-8.854,19.736-19.738
				C64.485,86.868,55.631,78.015,44.749,78.015L44.749,78.015z"/>
		</g>
		<g>
			<circle fill="#FFFFFF" cx="290.997" cy="250.021" r="17.638"/>
			<g>
				<path fill="url(#New_Pattern_Swatch_1)" d="M290.997,232.385c9.741,0,17.638,7.895,17.638,17.637s-7.896,17.637-17.638,17.637
					s-17.639-7.895-17.639-17.637S281.256,232.385,290.997,232.385 M290.997,229.11c-11.531,0-20.913,9.381-20.913,20.911
					s9.382,20.911,20.913,20.911c11.53,0,20.912-9.381,20.912-20.911S302.527,229.11,290.997,229.11L290.997,229.11z"/>
			</g>
		</g>
		<g>
			<path fill="#FFFFFF" d="M175.863,212.035c-21.852,0-39.629-17.777-39.629-39.629c0-21.853,17.777-39.63,39.629-39.63
				c21.853,0,39.63,17.778,39.63,39.63C215.493,194.258,197.716,212.035,175.863,212.035z"/>
			<path fill="#495966" d="M175.863,135c20.659,0,37.405,16.747,37.405,37.406c0,20.657-16.746,37.404-37.405,37.404
				c-20.657,0-37.404-16.747-37.404-37.404C138.459,151.748,155.206,135,175.863,135 M175.863,130.551
				c-23.078,0-41.854,18.776-41.854,41.855c0,23.078,18.776,41.854,41.854,41.854c23.079,0,41.854-18.775,41.854-41.854
				C217.718,149.327,198.942,130.551,175.863,130.551L175.863,130.551z"/>
		</g>
		<g>
			<circle fill="#FFFFFF" cx="89.908" cy="250.021" r="27.521"/>
			<path fill="url(#New_Pattern_Swatch_12)" d="M89.907,222.501c15.201,0,27.521,12.322,27.521,27.521
				c0,15.201-12.321,27.521-27.521,27.521c-15.2,0-27.521-12.319-27.521-27.521C62.387,234.823,74.708,222.501,89.907,222.501
				 M89.907,219.227c-16.98,0-30.794,13.814-30.794,30.795s13.814,30.795,30.794,30.795c16.98,0,30.795-13.814,30.795-30.795
				S106.888,219.227,89.907,219.227L89.907,219.227z"/>
		</g>
		<g>
			<circle fill="#FFFFFF" cx="292.174" cy="135" r="10.192"/>
			<path fill="url(#New_Pattern_Swatch_12)" d="M292.174,124.809c5.63,0,10.192,4.564,10.192,10.191
				c0,5.63-4.562,10.191-10.192,10.191c-5.629,0-10.191-4.562-10.191-10.191C281.982,129.374,286.545,124.809,292.174,124.809
				 M292.174,123.597c-6.288,0-11.404,5.116-11.404,11.404s5.116,11.404,11.404,11.404c6.289,0,11.405-5.116,11.405-11.404
				S298.463,123.597,292.174,123.597L292.174,123.597z"/>
		</g>
		<g>
			<circle fill="#FFFFFF" cx="34.556" cy="203.927" r="10.192"/>
			<g>
				<path fill="url(#New_Pattern_Swatch_1)" d="M34.556,193.734c5.63,0,10.193,4.564,10.193,10.192
					c0,5.629-4.563,10.193-10.193,10.193c-5.628,0-10.191-4.564-10.191-10.193C24.364,198.299,28.927,193.734,34.556,193.734
					 M34.556,190.46c-7.425,0-13.465,6.041-13.465,13.467s6.041,13.468,13.465,13.468c7.426,0,13.467-6.042,13.467-13.468
					S41.981,190.46,34.556,190.46L34.556,190.46z"/>
			</g>
		</g>
		<g>
			<circle fill="#FFFFFF" cx="244.629" cy="86.431" r="28.959"/>
			<path fill="url(#New_Pattern_Swatch_1)" d="M244.629,57.472c15.995,0,28.959,12.967,28.959,28.958
				c0,15.995-12.964,28.959-28.959,28.959c-15.993,0-28.959-12.964-28.959-28.959C215.67,70.439,228.636,57.472,244.629,57.472
				 M244.629,54.027c-17.867,0-32.404,14.536-32.404,32.403c0,17.868,14.537,32.404,32.404,32.404s32.404-14.536,32.404-32.404
				C277.033,68.563,262.496,54.027,244.629,54.027L244.629,54.027z"/>
		</g>
	</g>
	<g>
		<g>
			<path fill="#495966" d="M170.004,171.872c0.001-3.234,2.632-5.855,5.869-5.855c3.236,0.012,5.86,2.64,5.854,5.875
				c-0.006,3.236-2.637,5.86-5.874,5.853C172.615,177.739,169.995,175.113,170.004,171.872z"/>
		</g>
		<g>
			<path fill="#495966" d="M165.758,157.24c0.562,0.002,1.126,0.214,1.556,0.649c0.856,0.861,0.854,2.25-0.002,3.113
				c-7.469,7.435-7.481,15.319-0.046,22.786c0.861,0.856,0.859,2.254-0.004,3.11c-0.863,0.855-2.252,0.854-3.112-0.008
				c-9.201-9.235-9.18-19.811,0.052-29.011C164.633,157.452,165.194,157.24,165.758,157.24z"/>
		</g>
		<g>
			<path fill="#495966" d="M159.652,146.192c0.563,0.007,1.125,0.221,1.552,0.647c0.862,0.866,0.857,2.258-0.003,3.117
				c-13.647,13.598-13.679,31.206-0.08,44.856c0.859,0.855,0.859,2.255-0.008,3.109c-0.857,0.858-2.251,0.858-3.109-0.01
				c-15.248-15.3-15.214-35.823,0.09-51.075C158.523,146.411,159.087,146.192,159.652,146.192z"/>
		</g>
		<g>
			<path fill="#495966" d="M186.021,157.281c0.56,0,1.125,0.214,1.556,0.642c9.199,9.238,9.182,19.81-0.052,29.007
				c-0.859,0.863-2.255,0.863-3.113-0.005c-0.858-0.856-0.854-2.254,0.003-3.109c7.467-7.439,7.48-15.315,0.043-22.782
				c-0.857-0.862-0.854-2.254,0.005-3.118C184.896,157.49,185.458,157.281,186.021,157.281z"/>
		</g>
		<g>
			<path fill="#495966" d="M192.167,146.25c0.563,0.005,1.126,0.222,1.555,0.652c15.251,15.301,15.212,35.829-0.087,51.078
				c-0.866,0.858-2.256,0.851-3.113-0.003c-0.859-0.863-0.854-2.26,0.005-3.114c13.644-13.602,13.675-31.205,0.078-44.856
				c-0.855-0.858-0.854-2.255,0.005-3.109C191.041,146.464,191.603,146.25,192.167,146.25z"/>
		</g>
	</g>
</g>
</svg>
