<svg xmlns="http://www.w3.org/2000/svg" width="335" height="335" viewBox="0 0 335 335"><pattern x="-138.5" y="-228.5" width="125.994" height="125.994" patternUnits="userSpaceOnUse" id="a" viewBox="0 -125.994 125.994 125.994" overflow="visible"><path fill="none" d="M0-125.994h125.994v125.994h-125.994z"/><path fill="#5C86AC" d="M125.994 0h-125.994v-125.994h125.994z"/></pattern><path stroke="url(#a)" stroke-width="4.668" stroke-linecap="square" stroke-miterlimit="10" d="M113.345 94.075c2.044-1.588 4.163-3.085 6.35-4.486" fill="none"/><path stroke="url(#a)" stroke-width="4.668" stroke-linecap="square" stroke-miterlimit="10" stroke-dasharray="13.9072,13.9072" d="M131.966 83.07c10.38-4.473 21.822-6.95 33.843-6.95 14.486 0 28.131 3.599 40.092 9.95" fill="none"/><path stroke="url(#a)" stroke-width="4.668" stroke-linecap="square" stroke-miterlimit="10" d="M211.91 89.582c1.342.86 2.659 1.756 3.949 2.687.812.586 1.612 1.184 2.401 1.797" fill="none"/><path fill="url(#a)" d="M208.681 94.637l8.885-1.111-1.115-8.885 4.243 3.298 1.115 8.883-8.884 1.114z"/><path stroke="url(#a)" stroke-width="4.668" stroke-linecap="square" stroke-miterlimit="10" d="M218.261 237.083c-2.044 1.588-4.163 3.085-6.35 4.486" fill="none"/><path stroke="url(#a)" stroke-width="4.668" stroke-linecap="square" stroke-miterlimit="10" stroke-dasharray="13.9071,13.9071" d="M199.641 248.088c-10.381 4.473-21.823 6.95-33.843 6.95-14.485 0-28.132-3.599-40.093-9.949" fill="none"/><path stroke="url(#a)" stroke-width="4.668" stroke-linecap="square" stroke-miterlimit="10" d="M119.696 241.578c-1.343-.86-2.659-1.756-3.949-2.687-.812-.586-1.612-1.186-2.402-1.797" fill="none"/><path fill="url(#a)" d="M122.924 236.502l-8.885 1.131 1.137 8.883-4.252-3.29-1.133-8.88 8.881-1.133z"/><path fill="#364454" d="M131.192 218.634c0 4.297-3.483 7.779-7.779 7.779h-52.899c-4.297 0-7.779-3.482-7.779-7.779v-105.801c0-4.297 3.482-7.779 7.779-7.779h52.899c4.296 0 7.779 3.482 7.779 7.779v105.801z"/><path fill="#fff" d="M67.013 115.765h59.901v99.939h-59.901z"/><path fill="#364454" d="M270.264 218.634c0 4.297-3.482 7.779-7.779 7.779h-52.899c-4.296 0-7.779-3.482-7.779-7.779v-105.801c0-4.297 3.483-7.779 7.779-7.779h52.899c4.297 0 7.779 3.482 7.779 7.779v105.801z"/><path fill="#fff" d="M206.084 115.765h59.901v99.939h-59.901z"/><path stroke="url(#a)" stroke-width="4.668" stroke-linecap="round" stroke-linejoin="round" stroke-miterlimit="10" fill="none" d="M219.661 143.714v27.799h35.659v-23.492h-17.829l-2.848-4.307z"/><circle fill="#EAD452" cx="237.591" cy="189.54" r="9.596"/><path stroke="#fff" stroke-width="3.112" stroke-linecap="round" stroke-linejoin="round" stroke-miterlimit="10" fill="none" d="M237.59 185.392v8.296M241.738 189.54h-8.297"/><circle fill="#EAD452" cx="96.963" cy="189.54" r="9.596"/><path stroke="#fff" stroke-width="3.112" stroke-linecap="round" stroke-linejoin="round" stroke-miterlimit="10" fill="none" d="M96.962 185.392v8.296M101.111 189.54h-8.298"/><ellipse stroke="url(#a)" stroke-width="4.668" stroke-linecap="round" stroke-linejoin="round" stroke-miterlimit="10" cx="96.963" cy="146.653" rx="6.613" ry="7.846" fill="none"/><path stroke="url(#a)" stroke-width="4.668" stroke-linecap="round" stroke-linejoin="round" stroke-miterlimit="10" d="M96.963 154.499l-17.112 8.609v2.99c0 3.438-.327 6.225 3.109 6.225h28.006c3.438 0 3.11-2.787 3.11-6.225v-2.99l-17.113-8.609z" fill="none"/></svg>