<svg xmlns="http://www.w3.org/2000/svg" width="335" height="335" viewBox="0 0 335 335"><filter id="a"><feGaussianBlur stdDeviation="4"/></filter><circle fill="#A5A5A5" cx="165.487" cy="166.915" r="91.653" opacity=".4" filter="url(#a)"/><path fill="#BA411F" d="M165.498 244.69c-43.412 0-78.73-35.318-78.73-78.73 0-43.413 35.318-78.732 78.73-78.732 43.413 0 78.731 35.319 78.731 78.732 0 43.412-35.318 78.73-78.731 78.73z"/><path fill="#fff" d="M165.498 91.647c41.043 0 74.312 33.271 74.312 74.312 0 41.039-33.269 74.311-74.312 74.311-41.04 0-74.311-33.271-74.311-74.311.001-41.04 33.271-74.312 74.311-74.312m0-8.839c-45.85 0-83.15 37.302-83.15 83.152s37.301 83.15 83.15 83.15 83.151-37.301 83.151-83.15c0-45.851-37.301-83.152-83.151-83.152zM153.842 165.073c-.095-6.426 5.053-11.713 11.484-11.81 6.428-.073 11.719 5.07 11.804 11.496.082 6.43-5.062 11.72-11.493 11.803-6.431.087-11.716-5.052-11.795-11.489zM144.972 136.132c1.116-.012 2.239.393 3.109 1.244 1.724 1.685 1.763 4.446.088 6.184-14.614 14.994-14.403 30.655.59 45.263 1.737 1.676 1.771 4.451.086 6.178-1.689 1.725-4.451 1.763-6.183.08-18.553-18.069-18.831-39.081-.767-57.63.847-.864 1.956-1.301 3.077-1.319zM132.512 114.371c1.116-.002 2.241.407 3.103 1.236 1.739 1.694 1.769 4.46.086 6.192-26.702 27.421-26.238 62.399 1.185 89.105 1.731 1.675 1.772 4.456.078 6.178-1.679 1.729-4.447 1.771-6.179.071-30.747-29.934-31.295-70.7-1.35-101.458.84-.855 1.952-1.308 3.077-1.324zM185.222 135.607c1.113-.017 2.243.391 3.11 1.23 18.551 18.075 18.833 39.075.766 57.62-1.681 1.738-4.451 1.782-6.183.083-1.729-1.675-1.763-4.453-.089-6.178 14.609-14.999 14.401-30.642-.596-45.254-1.729-1.687-1.763-4.453-.086-6.192.85-.859 1.959-1.293 3.078-1.309zM197.102 113.511c1.12-.007 2.241.406 3.108 1.249 30.753 29.937 31.288 70.715 1.356 101.463-1.695 1.732-4.456 1.759-6.185.089-1.736-1.688-1.767-4.464-.085-6.187 26.696-27.426 26.23-62.396-1.186-89.106-1.729-1.68-1.766-4.455-.086-6.175.845-.875 1.956-1.316 3.078-1.333z"/></svg>