<svg xmlns="http://www.w3.org/2000/svg" width="335" height="335" viewBox="0 0 335 335"><pattern x="-138.5" y="-228.5" width="165.041" height="110.907" patternUnits="userSpaceOnUse" id="a" viewBox="0 -110.907 165.041 110.907" overflow="visible"><path fill="none" d="M0 0h165.042v-110.907h-165.042z"/><path fill="#F2D648" d="M165.042 0h-165.042v-110.907h165.042z"/></pattern><g stroke="#364454" stroke-miterlimit="10"><path stroke-width="3.149" fill="none" d="M10.44 170.628l52.354 14.082 52.354-39.328 52.354-63.055 52.353 142.188 52.354-56.754 52.353 14.004"/><path fill="#fff" stroke-width="4.199" d="M17.485 170.618c0 3.889-3.154 7.051-7.045 7.051-3.89 0-7.044-3.162-7.044-7.051 0-3.885 3.154-7.033 7.044-7.033 3.891 0 7.045 3.148 7.045 7.033zM69.836 184.706c0 3.895-3.154 7.045-7.039 7.045-3.895 0-7.044-3.15-7.044-7.045 0-3.889 3.149-7.037 7.044-7.037 3.885 0 7.039 3.148 7.039 7.037zM122.189 145.376c0 3.885-3.149 7.047-7.039 7.047-3.891 0-7.045-3.162-7.045-7.047 0-3.889 3.154-7.037 7.045-7.037 3.89 0 7.039 3.148 7.039 7.037zM174.545 82.327c0 3.893-3.154 7.047-7.045 7.047-3.889 0-7.043-3.154-7.043-7.047 0-3.889 3.154-7.045 7.043-7.045 3.891 0 7.045 3.156 7.045 7.045zM226.898 224.517c0 3.891-3.154 7.043-7.043 7.043-3.89 0-7.044-3.152-7.044-7.043 0-3.885 3.154-7.043 7.044-7.043 3.889 0 7.043 3.158 7.043 7.043zM279.252 167.763c0 3.893-3.154 7.041-7.039 7.041-3.896 0-7.047-3.148-7.047-7.041 0-3.889 3.151-7.045 7.047-7.045 3.885 0 7.039 3.156 7.039 7.045zM331.604 181.767c0 3.889-3.154 7.041-7.04 7.041-3.894 0-7.044-3.152-7.044-7.041s3.15-7.047 7.044-7.047c3.885 0 7.04 3.158 7.04 7.047z"/></g><g stroke="url(#a)" stroke-miterlimit="10"><path stroke-width="3.149" fill="none" d="M10.44 194.876l52.354-34.158 52.354 21.047 52.354-53.383 52.353 44.383 52.354 19.244 52.353 9.338"/><path fill="#fff" stroke-width="4.199" d="M17.485 194.866c0 3.889-3.154 7.051-7.045 7.051-3.89 0-7.044-3.162-7.044-7.051 0-3.885 3.154-7.033 7.044-7.033 3.891 0 7.045 3.148 7.045 7.033zM69.836 160.714c0 3.893-3.154 7.045-7.039 7.045-3.895 0-7.044-3.152-7.044-7.045 0-3.891 3.149-7.039 7.044-7.039 3.885 0 7.039 3.148 7.039 7.039zM122.189 181.759c0 3.885-3.149 7.047-7.039 7.047-3.891 0-7.045-3.162-7.045-7.047 0-3.889 3.154-7.037 7.045-7.037 3.89 0 7.039 3.148 7.039 7.037z"/><circle fill="#fff" stroke-width="4.199" cx="167.501" cy="128.382" r="7.044"/><path fill="#fff" stroke-width="4.199" d="M226.898 172.765c0 3.891-3.154 7.043-7.043 7.043-3.89 0-7.044-3.152-7.044-7.043 0-3.885 3.154-7.043 7.044-7.043 3.889 0 7.043 3.158 7.043 7.043zM279.252 192.011c0 3.893-3.154 7.041-7.039 7.041-3.896 0-7.047-3.148-7.047-7.041 0-3.889 3.151-7.045 7.047-7.045 3.885 0 7.039 3.156 7.039 7.045zM331.604 201.349c0 3.889-3.154 7.041-7.04 7.041-3.894 0-7.044-3.152-7.044-7.041s3.15-7.047 7.044-7.047c3.885 0 7.04 3.158 7.04 7.047z"/></g></svg>