<?xml version="1.0" encoding="utf-8"?>
<!-- Generator: Adobe Illustrator 16.0.4, SVG Export Plug-In . SVG Version: 6.00 Build 0)  -->
<!DOCTYPE svg PUBLIC "-//W3C//DTD SVG 1.1//EN" "http://www.w3.org/Graphics/SVG/1.1/DTD/svg11.dtd">
<svg version="1.1" id="Layer_1" xmlns="http://www.w3.org/2000/svg" xmlns:xlink="http://www.w3.org/1999/xlink" x="0px" y="0px"
	 width="94.496px" height="107.995px" viewBox="0 0 94.496 107.995" enable-background="new 0 0 94.496 107.995"
	 xml:space="preserve">
<pattern  x="-430.593" y="-224.593" width="125.994" height="125.994" patternUnits="userSpaceOnUse" id="New_Pattern_Swatch_1" viewBox="0 -125.994 125.994 125.994" overflow="visible">
	<g>
		<polygon fill="none" points="0,-125.994 125.994,-125.994 125.994,0 0,0 		"/>
		<polygon fill="#5C86AC" points="125.994,0 0,0 0,-125.994 125.994,-125.994 		"/>
	</g>
</pattern>
<g>
	
		<path fill="#FFFFFF" stroke="url(#New_Pattern_Swatch_1)" stroke-width="2.6629" stroke-linejoin="round" stroke-miterlimit="10" d="
		M52.077,57.25c0.444-0.357,0.88-0.729,1.309-1.116c0.427-0.392,0.839-0.79,1.24-1.194l-3.555-6.07
		c0.528-0.64,1.023-1.296,1.474-1.978l6.839,1.628c0.553-1.01,1.042-2.048,1.466-3.107l-5.608-4.248
		c0.239-0.788,0.443-1.591,0.598-2.396l6.94-1.106c0.122-1.144,0.179-2.292,0.167-3.438l-6.8-1.776
		c-0.077-0.816-0.2-1.631-0.365-2.439l5.993-3.687c-0.319-1.092-0.708-2.174-1.159-3.235l-6.964,0.962
		c-0.384-0.722-0.812-1.425-1.279-2.115l4.124-5.694c-0.356-0.445-0.729-0.881-1.115-1.308c-0.39-0.427-0.79-0.838-1.196-1.236
		l-6.065,3.554c-0.641-0.531-1.301-1.025-1.979-1.475l1.627-6.844c-1.008-0.549-2.046-1.037-3.107-1.465l-4.248,5.611
		c-0.789-0.242-1.587-0.445-2.394-0.598l-1.112-6.94c-1.14-0.121-2.288-0.181-3.437-0.169l-1.775,6.802
		c-0.818,0.075-1.631,0.2-2.439,0.366l-3.688-5.994c-1.094,0.318-2.176,0.705-3.235,1.157l0.962,6.967
		c-0.72,0.38-1.424,0.81-2.112,1.275l-5.695-4.123c-0.443,0.36-0.881,0.73-1.306,1.119c-0.431,0.388-0.84,0.787-1.243,1.194
		l3.554,6.065c-0.529,0.64-1.022,1.3-1.473,1.981l-6.839-1.627c-0.554,1.007-1.042,2.048-1.466,3.105l5.607,4.246
		c-0.241,0.79-0.443,1.59-0.596,2.395l-6.94,1.108c-0.123,1.144-0.177,2.292-0.167,3.438l6.802,1.775
		c0.077,0.82,0.199,1.635,0.364,2.44l-5.994,3.687c0.322,1.095,0.708,2.177,1.162,3.238l6.964-0.963
		c0.379,0.72,0.808,1.423,1.275,2.111l-4.124,5.696c0.358,0.443,0.729,0.881,1.115,1.309c0.391,0.426,0.79,0.84,1.197,1.236
		l6.067-3.551c0.638,0.528,1.296,1.022,1.979,1.473l-1.63,6.838c1.01,0.553,2.049,1.043,3.106,1.466l4.248-5.61
		c0.789,0.244,1.587,0.446,2.395,0.601l1.11,6.94c1.142,0.123,2.29,0.177,3.437,0.164l1.777-6.801
		c0.815-0.075,1.63-0.198,2.439-0.363l3.686,5.993c1.094-0.32,2.175-0.704,3.236-1.157l-0.964-6.966
		c0.722-0.383,1.426-0.811,2.116-1.278L52.077,57.25z M26.622,41.033c-3.588-3.953-3.293-10.07,0.662-13.658
		c3.955-3.589,10.067-3.294,13.659,0.661c3.591,3.953,3.294,10.067-0.662,13.66C36.327,45.286,30.213,44.988,26.622,41.033z"/>
	<g>
		<path fill="#FFFFFF" d="M86.071,61.66c0.186-0.152,0.371-0.31,0.551-0.475c0.181-0.16,0.354-0.33,0.523-0.504l-1.502-2.559
			c0.225-0.268,0.433-0.546,0.623-0.833l2.887,0.688c0.234-0.426,0.439-0.862,0.617-1.312l-2.363-1.792
			c0.1-0.333,0.186-0.668,0.251-1.007l2.926-0.473c0.054-0.479,0.075-0.963,0.071-1.448l-2.869-0.748
			c-0.032-0.345-0.084-0.688-0.154-1.03l2.528-1.554c-0.134-0.462-0.299-0.918-0.487-1.366l-2.938,0.409
			c-0.161-0.306-0.342-0.601-0.539-0.894l1.738-2.401c-0.149-0.188-0.308-0.369-0.471-0.554c-0.163-0.18-0.329-0.351-0.502-0.523
			l-2.562,1.502c-0.27-0.222-0.548-0.433-0.833-0.624l0.688-2.884c-0.428-0.234-0.865-0.44-1.31-0.62l-1.793,2.367
			c-0.332-0.102-0.671-0.188-1.01-0.251l-0.471-2.927c-0.481-0.052-0.964-0.075-1.448-0.072l-0.751,2.871
			c-0.343,0.03-0.686,0.083-1.029,0.151l-1.554-2.527c-0.461,0.133-0.916,0.297-1.366,0.487l0.408,2.938
			c-0.306,0.163-0.603,0.343-0.893,0.539l-2.4-1.737c-0.189,0.149-0.372,0.308-0.551,0.47c-0.183,0.166-0.354,0.335-0.525,0.505
			l1.501,2.562c-0.222,0.265-0.433,0.541-0.623,0.833l-2.885-0.689c-0.232,0.428-0.439,0.865-0.619,1.313l2.367,1.79
			c-0.101,0.333-0.188,0.671-0.254,1.008l-2.927,0.47c-0.054,0.481-0.076,0.966-0.071,1.45l2.871,0.75
			c0.03,0.343,0.083,0.687,0.151,1.026l-2.526,1.556c0.134,0.462,0.296,0.916,0.487,1.366l2.94-0.405
			c0.157,0.303,0.342,0.6,0.537,0.89l-1.739,2.404c0.149,0.184,0.309,0.371,0.474,0.552c0.161,0.178,0.331,0.352,0.499,0.523
			l2.564-1.5c0.268,0.223,0.544,0.432,0.832,0.623l-0.687,2.882c0.427,0.234,0.864,0.442,1.311,0.62l1.792-2.366
			c0.334,0.105,0.668,0.187,1.011,0.252l0.469,2.93c0.479,0.05,0.964,0.074,1.448,0.069l0.748-2.872
			c0.346-0.029,0.687-0.081,1.031-0.153l1.556,2.531c0.462-0.135,0.917-0.296,1.36-0.488l-0.401-2.94
			c0.302-0.162,0.6-0.341,0.892-0.539L86.071,61.66z M75.332,54.819c-1.513-1.673-1.392-4.249,0.278-5.763
			c1.672-1.512,4.25-1.388,5.763,0.28c1.516,1.667,1.39,4.246-0.277,5.764C79.428,56.611,76.849,56.486,75.332,54.819z"/>
		<path fill="url(#New_Pattern_Swatch_1)" d="M78.303,39.774c0.457,0,0.912,0.023,1.366,0.072l0.471,2.927
			c0.339,0.063,0.678,0.149,1.01,0.251l1.793-2.367c0.444,0.18,0.882,0.386,1.31,0.62l-0.688,2.884
			c0.285,0.19,0.563,0.401,0.833,0.624l2.562-1.502c0.173,0.172,0.339,0.344,0.502,0.523c0.163,0.185,0.321,0.365,0.471,0.554
			l-1.738,2.401c0.197,0.293,0.378,0.588,0.539,0.894l2.938-0.409c0.188,0.448,0.354,0.904,0.487,1.366l-2.528,1.554
			c0.07,0.342,0.122,0.685,0.154,1.03l2.869,0.748c0.004,0.485-0.018,0.969-0.071,1.448l-2.926,0.473
			c-0.065,0.339-0.151,0.674-0.251,1.007l2.363,1.792c-0.178,0.45-0.383,0.887-0.617,1.312l-2.887-0.688
			c-0.19,0.287-0.398,0.565-0.623,0.833l1.502,2.559c-0.169,0.174-0.343,0.344-0.523,0.504c-0.18,0.165-0.365,0.322-0.551,0.475
			l-2.401-1.742c-0.292,0.198-0.59,0.377-0.892,0.539l0.401,2.94c-0.443,0.192-0.898,0.354-1.36,0.488l-1.556-2.531
			c-0.345,0.072-0.686,0.124-1.031,0.153l-0.748,2.872c-0.041,0-0.081,0.001-0.122,0.001c-0.443,0-0.888-0.024-1.326-0.07
			l-0.469-2.93c-0.343-0.065-0.677-0.146-1.011-0.252l-1.792,2.366c-0.446-0.178-0.884-0.386-1.311-0.62l0.687-2.882
			c-0.288-0.191-0.564-0.4-0.832-0.623l-2.564,1.5c-0.168-0.172-0.338-0.346-0.499-0.523c-0.165-0.181-0.324-0.368-0.474-0.552
			l1.739-2.404c-0.195-0.29-0.38-0.587-0.537-0.89l-2.94,0.405c-0.191-0.45-0.354-0.903-0.487-1.366l2.526-1.556
			c-0.068-0.339-0.121-0.683-0.151-1.026l-2.871-0.75c-0.005-0.484,0.018-0.969,0.071-1.45l2.927-0.47
			c0.066-0.337,0.153-0.675,0.254-1.008l-2.367-1.79c0.18-0.448,0.387-0.885,0.619-1.313l2.885,0.689
			c0.19-0.293,0.401-0.568,0.623-0.833l-1.501-2.562c0.171-0.17,0.343-0.339,0.525-0.505c0.179-0.162,0.361-0.321,0.551-0.47
			l2.4,1.737c0.29-0.196,0.587-0.376,0.893-0.539l-0.408-2.938c0.45-0.19,0.905-0.354,1.366-0.487l1.554,2.527
			c0.344-0.068,0.687-0.121,1.029-0.151l0.751-2.871C78.249,39.774,78.276,39.774,78.303,39.774 M78.357,56.156
			c0.978,0,1.958-0.349,2.738-1.057c1.667-1.518,1.793-4.097,0.277-5.764c-0.805-0.887-1.91-1.338-3.021-1.338
			c-0.978,0-1.959,0.35-2.742,1.058c-1.67,1.515-1.791,4.09-0.278,5.763C76.139,55.706,77.246,56.156,78.357,56.156 M78.303,38.678
			l-0.089,0c-0.495,0.003-0.928,0.338-1.053,0.818l-0.437,1.67l-0.905-1.472c-0.202-0.33-0.56-0.521-0.933-0.521
			c-0.102,0-0.203,0.014-0.305,0.043c-0.486,0.141-0.986,0.319-1.487,0.53c-0.457,0.193-0.728,0.669-0.659,1.16l0.238,1.711
			l-1.396-1.01c-0.191-0.139-0.417-0.208-0.642-0.208c-0.239,0-0.479,0.078-0.677,0.234c-0.209,0.164-0.411,0.34-0.608,0.518
			c-0.196,0.178-0.381,0.359-0.563,0.541c-0.354,0.353-0.425,0.899-0.173,1.331l0.873,1.489l-1.68-0.401
			c-0.085-0.02-0.171-0.03-0.255-0.03c-0.395,0-0.768,0.214-0.963,0.573c-0.255,0.47-0.481,0.951-0.673,1.428
			c-0.184,0.458-0.038,0.983,0.356,1.281l1.375,1.04l-1.702,0.273c-0.485,0.078-0.86,0.471-0.915,0.96
			c-0.057,0.512-0.083,1.044-0.077,1.583c0.005,0.494,0.34,0.923,0.818,1.048l1.666,0.436l-1.468,0.904
			c-0.419,0.258-0.614,0.764-0.478,1.237c0.145,0.5,0.323,1.001,0.531,1.49C66.199,57.743,66.598,58,67.032,58
			c0.05,0,0.1-0.003,0.15-0.01l1.713-0.236l-1.012,1.398c-0.29,0.401-0.274,0.948,0.038,1.333c0.162,0.199,0.335,0.402,0.515,0.599
			c0.155,0.172,0.322,0.345,0.489,0.515c0.221,0.227,0.535,0.354,0.846,0.354c0.183,0,0.364-0.044,0.525-0.138l1.491-0.873
			l-0.399,1.678c-0.114,0.479,0.106,0.977,0.538,1.214c0.471,0.259,0.953,0.486,1.433,0.678c0.132,0.053,0.27,0.078,0.405,0.078
			c0.335,0,0.661-0.155,0.873-0.435l1.044-1.378l0.273,1.705c0.078,0.489,0.475,0.865,0.968,0.916
			c0.483,0.051,0.968,0.076,1.439,0.076l0.133-0.001c0.495-0.005,0.925-0.34,1.049-0.818l0.436-1.672l0.907,1.475
			c0.202,0.33,0.56,0.522,0.933,0.522c0.102,0,0.205-0.015,0.307-0.044c0.521-0.152,1.021-0.332,1.489-0.535
			c0.45-0.195,0.716-0.667,0.649-1.153l-0.234-1.716l1.398,1.014c0.191,0.14,0.417,0.209,0.643,0.209
			c0.247,0,0.493-0.084,0.695-0.249c0.201-0.165,0.401-0.336,0.597-0.515c0.186-0.164,0.38-0.354,0.568-0.548
			c0.343-0.354,0.407-0.893,0.158-1.317l-0.871-1.484l1.681,0.4c0.085,0.02,0.17,0.029,0.254,0.029c0.393,0,0.764-0.212,0.959-0.566
			c0.255-0.463,0.482-0.946,0.677-1.438c0.181-0.456,0.035-0.978-0.356-1.274l-1.377-1.044l1.703-0.275
			c0.485-0.078,0.858-0.471,0.914-0.959c0.056-0.501,0.082-1.032,0.077-1.579c-0.004-0.495-0.339-0.926-0.818-1.051l-1.669-0.435
			l1.471-0.904c0.42-0.258,0.616-0.765,0.479-1.238c-0.14-0.484-0.318-0.984-0.529-1.486c-0.173-0.41-0.574-0.67-1.009-0.67
			c-0.051,0-0.102,0.003-0.152,0.01L87.808,46.4l1.012-1.398c0.288-0.397,0.276-0.938-0.028-1.322
			c-0.161-0.204-0.332-0.399-0.509-0.599c-0.185-0.204-0.363-0.389-0.549-0.574c-0.211-0.21-0.491-0.32-0.773-0.32
			c-0.19,0-0.382,0.049-0.554,0.15l-1.489,0.873l0.4-1.68c0.114-0.48-0.106-0.978-0.54-1.215c-0.457-0.25-0.936-0.477-1.425-0.674
			c-0.133-0.054-0.272-0.08-0.41-0.08c-0.335,0-0.661,0.154-0.873,0.434l-1.045,1.379l-0.274-1.704
			c-0.078-0.487-0.473-0.862-0.963-0.915C79.305,38.705,78.805,38.678,78.303,38.678L78.303,38.678z M78.357,55.061
			c-0.842,0-1.649-0.357-2.216-0.979c-1.103-1.219-1.012-3.111,0.204-4.215c0.552-0.498,1.265-0.773,2.007-0.773
			c0.841,0,1.646,0.356,2.209,0.979c1.107,1.217,1.016,3.108-0.203,4.218C79.81,54.787,79.099,55.061,78.357,55.061L78.357,55.061z"
			/>
	</g>
	
		<path fill="#FFFFFF" stroke="url(#New_Pattern_Swatch_1)" stroke-width="1.6584" stroke-linejoin="round" stroke-miterlimit="10" d="
		M71.184,100.163c0.31-0.248,0.609-0.507,0.904-0.771c0.295-0.269,0.58-0.543,0.855-0.827l-2.453-4.181
		c0.367-0.439,0.707-0.896,1.018-1.366l4.719,1.125c0.381-0.699,0.715-1.413,1.012-2.144l-3.872-2.931
		c0.171-0.545,0.308-1.095,0.416-1.651l4.786-0.766c0.085-0.788,0.124-1.578,0.115-2.37l-4.693-1.225
		c-0.051-0.563-0.136-1.125-0.249-1.684l4.133-2.541c-0.22-0.755-0.487-1.503-0.801-2.235l-4.803,0.668
		c-0.263-0.503-0.56-0.989-0.879-1.461l2.844-3.927c-0.247-0.307-0.5-0.604-0.77-0.901c-0.27-0.294-0.543-0.579-0.826-0.855
		l-4.185,2.452c-0.44-0.363-0.896-0.706-1.366-1.019l1.126-4.716c-0.695-0.381-1.414-0.719-2.143-1.015l-2.931,3.872
		c-0.546-0.168-1.094-0.305-1.652-0.413l-0.767-4.787c-0.787-0.081-1.582-0.125-2.369-0.112l-1.225,4.689
		c-0.565,0.051-1.124,0.14-1.685,0.25l-2.543-4.133c-0.754,0.221-1.5,0.487-2.228,0.797l0.661,4.807
		c-0.497,0.265-0.985,0.558-1.457,0.88l-3.927-2.843c-0.308,0.246-0.609,0.502-0.906,0.769c-0.293,0.27-0.578,0.543-0.852,0.828
		l2.452,4.181c-0.367,0.44-0.706,0.898-1.017,1.366l-4.72-1.126c-0.379,0.701-0.716,1.416-1.008,2.146l3.867,2.932
		c-0.167,0.543-0.305,1.092-0.411,1.65l-4.787,0.767c-0.086,0.786-0.125,1.576-0.114,2.369l4.689,1.225
		c0.053,0.562,0.137,1.124,0.251,1.684L39.26,90.16c0.225,0.756,0.492,1.5,0.803,2.233l4.805-0.665
		c0.263,0.497,0.556,0.986,0.881,1.46l-2.847,3.928c0.244,0.304,0.506,0.605,0.773,0.9c0.265,0.295,0.541,0.579,0.822,0.855
		l4.184-2.453c0.441,0.365,0.897,0.709,1.366,1.018l-1.123,4.718c0.696,0.381,1.413,0.72,2.141,1.011l2.931-3.87
		c0.543,0.171,1.093,0.308,1.651,0.415l0.768,4.786c0.784,0.082,1.579,0.12,2.367,0.115l1.226-4.692
		c0.563-0.052,1.125-0.14,1.684-0.252l2.544,4.134c0.754-0.218,1.498-0.486,2.231-0.795l-0.664-4.807
		c0.497-0.265,0.983-0.561,1.459-0.882L71.184,100.163z M53.63,88.976c-2.474-2.724-2.272-6.943,0.457-9.419
		c2.726-2.476,6.944-2.271,9.42,0.458c2.476,2.725,2.271,6.943-0.455,9.419C60.323,91.911,56.105,91.704,53.63,88.976z"/>
</g>
</svg>
