<svg xmlns="http://www.w3.org/2000/svg" width="94.496" height="107.995" viewBox="0 0 94.496 107.995"><pattern x="-430.593" y="-224.593" width="125.994" height="125.994" patternUnits="userSpaceOnUse" id="a" viewBox="0 -125.994 125.994 125.994" overflow="visible"><path fill="none" d="M0-125.994h125.994v125.994h-125.994z"/><path fill="#5C86AC" d="M125.994 0h-125.994v-125.994h125.994z"/></pattern><path fill="#fff" stroke="url(#a)" stroke-width="2.663" stroke-linejoin="round" stroke-miterlimit="10" d="M52.077 57.25c.444-.357.88-.729 1.309-1.116.427-.392.839-.79 1.24-1.194l-3.555-6.07c.528-.64 1.023-1.296 1.474-1.978l6.839 1.628c.553-1.01 1.042-2.048 1.466-3.107l-5.608-4.248c.239-.788.443-1.591.598-2.396l6.94-1.106c.122-1.144.179-2.292.167-3.438l-6.8-1.776c-.077-.816-.2-1.631-.365-2.439l5.993-3.687c-.319-1.092-.708-2.174-1.159-3.235l-6.964.962c-.384-.722-.812-1.425-1.279-2.115l4.124-5.694c-.356-.445-.729-.881-1.115-1.308-.39-.427-.79-.838-1.196-1.236l-6.065 3.554c-.641-.531-1.301-1.025-1.979-1.475l1.627-6.844c-1.008-.549-2.046-1.037-3.107-1.465l-4.248 5.611c-.789-.242-1.587-.445-2.394-.598l-1.112-6.94c-1.14-.121-2.288-.181-3.437-.169l-1.775 6.802c-.818.075-1.631.2-2.439.366l-3.688-5.994c-1.094.318-2.176.705-3.235 1.157l.962 6.967c-.72.38-1.424.81-2.112 1.275l-5.695-4.123c-.443.36-.881.73-1.306 1.119-.431.388-.84.787-1.243 1.194l3.554 6.065c-.529.64-1.022 1.3-1.473 1.981l-6.839-1.627c-.554 1.007-1.042 2.048-1.466 3.105l5.607 4.246c-.241.79-.443 1.59-.596 2.395l-6.94 1.108c-.123 1.144-.177 2.292-.167 3.438l6.802 1.775c.077.82.199 1.635.364 2.44l-5.994 3.687c.322 1.095.708 2.177 1.162 3.238l6.964-.963c.379.72.808 1.423 1.275 2.111l-4.124 5.696c.358.443.729.881 1.115 1.309.391.426.79.84 1.197 1.236l6.067-3.551c.638.528 1.296 1.022 1.979 1.473l-1.63 6.838c1.01.553 2.049 1.043 3.106 1.466l4.248-5.61c.789.244 1.587.446 2.395.601l1.11 6.94c1.142.123 2.29.177 3.437.164l1.777-6.801c.815-.075 1.63-.198 2.439-.363l3.686 5.993c1.094-.32 2.175-.704 3.236-1.157l-.964-6.966c.722-.383 1.426-.811 2.116-1.278l5.694 4.127zm-25.455-16.217c-3.588-3.953-3.293-10.07.662-13.658 3.955-3.589 10.067-3.294 13.659.661 3.591 3.953 3.294 10.067-.662 13.66-3.954 3.59-10.068 3.292-13.659-.663z"/><path fill="#fff" d="M86.071 61.66c.186-.152.371-.31.551-.475.181-.16.354-.33.523-.504l-1.502-2.559c.225-.268.433-.546.623-.833l2.887.688c.234-.426.439-.862.617-1.312l-2.363-1.792c.1-.333.186-.668.251-1.007l2.926-.473c.054-.479.075-.963.071-1.448l-2.869-.748c-.032-.345-.084-.688-.154-1.03l2.528-1.554c-.134-.462-.299-.918-.487-1.366l-2.938.409c-.161-.306-.342-.601-.539-.894l1.738-2.401c-.149-.188-.308-.369-.471-.554-.163-.18-.329-.351-.502-.523l-2.562 1.502c-.27-.222-.548-.433-.833-.624l.688-2.884c-.428-.234-.865-.44-1.31-.62l-1.793 2.367c-.332-.102-.671-.188-1.01-.251l-.471-2.927c-.481-.052-.964-.075-1.448-.072l-.751 2.871c-.343.03-.686.083-1.029.151l-1.554-2.527c-.461.133-.916.297-1.366.487l.408 2.938c-.306.163-.603.343-.893.539l-2.4-1.737c-.189.149-.372.308-.551.47-.183.166-.354.335-.525.505l1.501 2.562c-.222.265-.433.541-.623.833l-2.885-.689c-.232.428-.439.865-.619 1.313l2.367 1.79c-.101.333-.188.671-.254 1.008l-2.927.47c-.054.481-.076.966-.071 1.45l2.871.75c.03.343.083.687.151 1.026l-2.526 1.556c.134.462.296.916.487 1.366l2.94-.405c.157.303.342.6.537.89l-1.739 2.404c.149.184.309.371.474.552l.499.523 2.564-1.5c.268.223.544.432.832.623l-.687 2.882c.427.234.864.442 1.311.62l1.792-2.366c.334.105.668.187 1.011.252l.469 2.93c.479.05.964.074 1.448.069l.748-2.872c.346-.029.687-.081 1.031-.153l1.556 2.531c.462-.135.917-.296 1.36-.488l-.401-2.94c.302-.162.6-.341.892-.539l2.401 1.74zm-10.739-6.841c-1.513-1.673-1.392-4.249.278-5.763 1.672-1.512 4.25-1.388 5.763.28 1.516 1.667 1.39 4.246-.277 5.764-1.668 1.511-4.247 1.386-5.764-.281z"/><path fill="url(#a)" d="M78.303 39.774c.457 0 .912.023 1.366.072l.471 2.927c.339.063.678.149 1.01.251l1.793-2.367c.444.18.882.386 1.31.62l-.688 2.884c.285.19.563.401.833.624l2.562-1.502c.173.172.339.344.502.523.163.185.321.365.471.554l-1.738 2.401c.197.293.378.588.539.894l2.938-.409c.188.448.354.904.487 1.366l-2.528 1.554c.07.342.122.685.154 1.03l2.869.748c.004.485-.018.969-.071 1.448l-2.926.473c-.065.339-.151.674-.251 1.007l2.363 1.792c-.178.45-.383.887-.617 1.312l-2.887-.688c-.19.287-.398.565-.623.833l1.502 2.559c-.169.174-.343.344-.523.504-.18.165-.365.322-.551.475l-2.401-1.742c-.292.198-.59.377-.892.539l.401 2.94c-.443.192-.898.354-1.36.488l-1.556-2.531c-.345.072-.686.124-1.031.153l-.748 2.872-.122.001c-.443 0-.888-.024-1.326-.07l-.469-2.93c-.343-.065-.677-.146-1.011-.252l-1.792 2.366c-.446-.178-.884-.386-1.311-.62l.687-2.882c-.288-.191-.564-.4-.832-.623l-2.564 1.5-.499-.523c-.165-.181-.324-.368-.474-.552l1.739-2.404c-.195-.29-.38-.587-.537-.89l-2.94.405c-.191-.45-.354-.903-.487-1.366l2.526-1.556c-.068-.339-.121-.683-.151-1.026l-2.871-.75c-.005-.484.018-.969.071-1.45l2.927-.47c.066-.337.153-.675.254-1.008l-2.367-1.79c.18-.448.387-.885.619-1.313l2.885.689c.19-.293.401-.568.623-.833l-1.501-2.562c.171-.17.343-.339.525-.505.179-.162.361-.321.551-.47l2.4 1.737c.29-.196.587-.376.893-.539l-.408-2.938c.45-.19.905-.354 1.366-.487l1.554 2.527c.344-.068.687-.121 1.029-.151l.751-2.871.082.002m.054 16.382c.978 0 1.958-.349 2.738-1.057 1.667-1.518 1.793-4.097.277-5.764-.805-.887-1.91-1.338-3.021-1.338-.978 0-1.959.35-2.742 1.058-1.67 1.515-1.791 4.09-.278 5.763.808.888 1.915 1.338 3.026 1.338m-.054-17.478h-.089c-.495.003-.928.338-1.053.818l-.437 1.67-.905-1.472c-.202-.33-.56-.521-.933-.521-.102 0-.203.014-.305.043-.486.141-.986.319-1.487.53-.457.193-.728.669-.659 1.16l.238 1.711-1.396-1.01c-.191-.139-.417-.208-.642-.208-.239 0-.479.078-.677.234-.209.164-.411.34-.608.518-.196.178-.381.359-.563.541-.354.353-.425.899-.173 1.331l.873 1.489-1.68-.401-.255-.03c-.395 0-.768.214-.963.573-.255.47-.481.951-.673 1.428-.184.458-.038.983.356 1.281l1.375 1.04-1.702.273c-.485.078-.86.471-.915.96-.057.512-.083 1.044-.077 1.583.005.494.34.923.818 1.048l1.666.436-1.468.904c-.419.258-.614.764-.478 1.237.145.5.323 1.001.531 1.49.177.409.576.666 1.01.666l.15-.01 1.713-.236-1.012 1.398c-.29.401-.274.948.038 1.333.162.199.335.402.515.599l.489.515c.221.227.535.354.846.354.183 0 .364-.044.525-.138l1.491-.873-.399 1.678c-.114.479.106.977.538 1.214.471.259.953.486 1.433.678.132.053.27.078.405.078.335 0 .661-.155.873-.435l1.044-1.378.273 1.705c.078.489.475.865.968.916.483.051.968.076 1.439.076l.133-.001c.495-.005.925-.34 1.049-.818l.436-1.672.907 1.475c.202.33.56.522.933.522.102 0 .205-.015.307-.044.521-.152 1.021-.332 1.489-.535.45-.195.716-.667.649-1.153l-.234-1.716 1.398 1.014c.191.14.417.209.643.209.247 0 .493-.084.695-.249.201-.165.401-.336.597-.515.186-.164.38-.354.568-.548.343-.354.407-.893.158-1.317l-.871-1.484 1.681.4.254.029c.393 0 .764-.212.959-.566.255-.463.482-.946.677-1.438.181-.456.035-.978-.356-1.274l-1.377-1.044 1.703-.275c.485-.078.858-.471.914-.959.056-.501.082-1.032.077-1.579-.004-.495-.339-.926-.818-1.051l-1.669-.435 1.471-.904c.42-.258.616-.765.479-1.238-.14-.484-.318-.984-.529-1.486-.173-.41-.574-.67-1.009-.67l-.152.01-1.715.238 1.012-1.398c.288-.397.276-.938-.028-1.322-.161-.204-.332-.399-.509-.599-.185-.204-.363-.389-.549-.574-.211-.21-.491-.32-.773-.32-.19 0-.382.049-.554.15l-1.489.873.4-1.68c.114-.48-.106-.978-.54-1.215-.457-.25-.936-.477-1.425-.674-.133-.054-.272-.08-.41-.08-.335 0-.661.154-.873.434l-1.045 1.379-.274-1.704c-.078-.487-.473-.862-.963-.915-.483-.05-.983-.077-1.485-.077zm.054 16.383c-.842 0-1.649-.357-2.216-.979-1.103-1.219-1.012-3.111.204-4.215.552-.498 1.265-.773 2.007-.773.841 0 1.646.356 2.209.979 1.107 1.217 1.016 3.108-.203 4.218-.548.496-1.259.77-2.001.77z"/><path fill="#fff" stroke="url(#a)" stroke-width="1.658" stroke-linejoin="round" stroke-miterlimit="10" d="M71.184 100.163c.31-.248.609-.507.904-.771.295-.269.58-.543.855-.827l-2.453-4.181c.367-.439.707-.896 1.018-1.366l4.719 1.125c.381-.699.715-1.413 1.012-2.144l-3.872-2.931c.171-.545.308-1.095.416-1.651l4.786-.766c.085-.788.124-1.578.115-2.37l-4.693-1.225c-.051-.563-.136-1.125-.249-1.684l4.133-2.541c-.22-.755-.487-1.503-.801-2.235l-4.803.668c-.263-.503-.56-.989-.879-1.461l2.844-3.927c-.247-.307-.5-.604-.77-.901-.27-.294-.543-.579-.826-.855l-4.185 2.452c-.44-.363-.896-.706-1.366-1.019l1.126-4.716c-.695-.381-1.414-.719-2.143-1.015l-2.931 3.872c-.546-.168-1.094-.305-1.652-.413l-.767-4.787c-.787-.081-1.582-.125-2.369-.112l-1.225 4.689c-.565.051-1.124.14-1.685.25l-2.543-4.133c-.754.221-1.5.487-2.228.797l.661 4.807c-.497.265-.985.558-1.457.88l-3.927-2.843c-.308.246-.609.502-.906.769-.293.27-.578.543-.852.828l2.452 4.181c-.367.44-.706.898-1.017 1.366l-4.72-1.126c-.379.701-.716 1.416-1.008 2.146l3.867 2.932c-.167.543-.305 1.092-.411 1.65l-4.787.767c-.086.786-.125 1.576-.114 2.369l4.689 1.225c.053.562.137 1.124.251 1.684l-4.133 2.54c.225.756.492 1.5.803 2.233l4.805-.665c.263.497.556.986.881 1.46l-2.847 3.928c.244.304.506.605.773.9.265.295.541.579.822.855l4.184-2.453c.441.365.897.709 1.366 1.018l-1.123 4.718c.696.381 1.413.72 2.141 1.011l2.931-3.87c.543.171 1.093.308 1.651.415l.768 4.786c.784.082 1.579.12 2.367.115l1.226-4.692c.563-.052 1.125-.14 1.684-.252l2.544 4.134c.754-.218 1.498-.486 2.231-.795l-.664-4.807c.497-.265.983-.561 1.459-.882l3.922 2.846zm-17.554-11.187c-2.474-2.724-2.272-6.943.457-9.419 2.726-2.476 6.944-2.271 9.42.458 2.476 2.725 2.271 6.943-.455 9.419-2.729 2.477-6.947 2.27-9.422-.458z"/></svg>