<svg xmlns="http://www.w3.org/2000/svg" width="1142.536" height="347.818" viewBox="0 0 1142.536 347.818"><path opacity=".15" fill="#fff" d="M1110.276 32.611c-17.482.331-31.389 14.77-31.06 32.252.035 1.899.248 3.752.603 5.553l-58.701 31.73c-5.894-6.06-14.162-9.785-23.28-9.613-7.729.147-14.749 3.055-20.158 7.759l-75.295-54.76c2.133-4.368 3.315-9.276 3.219-14.468-.33-17.484-14.771-31.389-32.254-31.059-17.481.329-31.39 14.768-31.061 32.253.148 7.956 3.243 15.15 8.196 20.621l-124.025 87.089c-4.714-2.618-10.146-4.091-15.925-3.982-17.481.33-31.388 14.77-31.059 32.252l-130.021-84.141c.664-2-.2-7.67-.408-8.881-2.977-17.232-19.357-28.787-36.587-25.812-17.233 2.977-28.789 19.357-25.812 36.588.148.865.341 1.711.556 2.547l-81.469 28.698c-6.502-10.987-19.291-17.4-32.618-15.098-17.23 2.976-28.787 19.356-25.811 36.589 1.389 8.038 5.718 14.813 11.665 19.481l-76.695 124.78c-5.191-2.028-10.971-2.746-16.868-1.728-8.625 1.49-15.83 6.341-20.5 12.976l-81.941-42.307c2.208-5.339 3.009-11.331 1.954-17.443-2.976-17.231-19.357-28.786-36.587-25.812-17.232 2.977-28.789 19.357-25.812 36.589.818 4.733 2.674 9.017 5.256 12.71l-51.146 38.697c-6.954-8.896-18.449-13.777-30.352-11.723-17.233 2.978-28.79 19.358-25.812 36.59 2.976 17.231 19.357 28.787 36.588 25.812 17.23-2.977 28.788-19.357 25.811-36.589-.323-1.872-.813-3.672-1.437-5.398l53.212-40.261c6.744 5.097 15.48 7.524 24.469 5.974 7.616-1.317 14.116-5.256 18.75-10.726l82.726 42.712c-1.446 4.64-1.872 9.671-.987 14.788 2.976 17.232 19.357 28.787 36.589 25.812 17.229-2.977 28.786-19.356 25.811-36.59-1.354-7.841-5.504-14.482-11.226-19.14l76.777-124.915c5.057 1.872 10.648 2.504 16.345 1.52 17.23-2.976 28.786-19.356 25.811-36.587-.093-.535-.235-1.044-.354-1.566l81.211-29.714c6.49 11.02 19.324 17.439 32.674 15.134 10.296-1.779 18.563-8.346 22.916-17.019l135.624 84.645c4.761 11.846 16.432 20.123 29.951 19.868 17.483-.328 31.39-14.769 31.061-32.253-.154-8.155-3.405-15.508-8.575-21.024l123.919-86.967c4.824 2.793 10.43 4.377 16.412 4.264 8.754-.164 16.606-3.867 22.228-9.717l74.582 54.239c-2.99 4.943-4.691 10.745-4.574 16.947.328 17.483 14.77 31.387 32.251 31.058 17.482-.329 31.391-14.768 31.062-32.251-.091-4.803-1.277-9.317-3.27-13.36l56.422-30.497c5.524 9.846 16.146 16.415 28.226 16.188 17.485-.33 31.39-14.77 31.061-32.253-.334-17.484-14.774-31.389-32.258-31.061zm-1075.569 301.138c-9.719 1.68-18.96-4.84-20.638-14.559-1.679-9.72 4.839-18.959 14.559-20.639 9.72-1.678 18.96 4.841 20.638 14.561 1.679 9.719-4.841 18.959-14.559 20.637zm102.056-76.273c-9.72 1.678-18.96-4.841-20.639-14.561-1.68-9.719 4.839-18.959 14.56-20.638 9.719-1.679 18.959 4.84 20.638 14.56 1.678 9.719-4.841 18.959-14.559 20.639zm137.075 72.586c-9.719 1.68-18.959-4.84-20.638-14.56-1.68-9.718 4.839-18.959 14.559-20.638 9.721-1.679 18.96 4.84 20.639 14.559 1.679 9.721-4.84 18.96-14.56 20.639zm107.707-179.124c-9.719 1.679-18.96-4.84-20.638-14.559-1.68-9.719 4.839-18.961 14.558-20.639 9.72-1.679 18.96 4.84 20.641 14.56 1.678 9.719-4.841 18.96-14.561 20.638zm139.341-52.735c-9.719 1.678-18.959-4.84-20.637-14.56-1.68-9.72 4.839-18.959 14.558-20.638 9.719-1.678 18.96 4.84 20.639 14.56 1.679 9.719-4.841 18.959-14.56 20.638zm190.583 87.296c-9.862.187-18.008-7.658-18.193-17.52-.186-9.861 7.658-18.007 17.519-18.193 9.861-.185 18.006 7.659 18.193 17.52.186 9.861-7.658 18.007-17.519 18.193zm162.812-135.981c-9.861.186-18.007-7.658-18.193-17.52-.184-9.861 7.659-18.006 17.522-18.193 9.86-.186 18.005 7.659 18.19 17.521.188 9.86-7.657 18.006-17.519 18.192zm124.49 92.528c-9.861.186-18.008-7.659-18.194-17.521-.186-9.861 7.659-18.006 17.521-18.191s18.006 7.658 18.192 17.52c.186 9.861-7.656 18.007-17.519 18.192zm112.438-59.922c-9.862.186-18.008-7.658-18.192-17.521-.187-9.86 7.658-18.006 17.52-18.191 9.861-.187 18.006 7.657 18.191 17.52.188 9.86-7.658 18.007-17.519 18.192z"/></svg>