<?xml version="1.0" encoding="utf-8"?>
<!-- Generator: Adobe Illustrator 16.0.4, SVG Export Plug-In . SVG Version: 6.00 Build 0)  -->
<!DOCTYPE svg PUBLIC "-//W3C//DTD SVG 1.1//EN" "http://www.w3.org/Graphics/SVG/1.1/DTD/svg11.dtd">
<svg version="1.1" id="Layer_1" xmlns="http://www.w3.org/2000/svg" xmlns:xlink="http://www.w3.org/1999/xlink" x="0px" y="0px"
	 width="1420px" height="572px" viewBox="0 0 1420 572" enable-background="new 0 0 1420 572" xml:space="preserve">
<path opacity="0.03" fill="#FFFFFF" d="M1319.225,385.111c-18.327,0-33.186,14.857-33.186,33.186c0,0.629,0.021,1.253,0.057,1.873
	l-131.202,56.047c-6.025-6.159-14.423-9.986-23.719-9.986c-11.781,0-22.121,6.145-28.01,15.399l-410.789-97.081
	c-0.302-18.067-15.032-32.624-33.171-32.624c-18.328,0-33.186,14.858-33.186,33.186c0,0.228,0.013,0.451,0.018,0.676
	l-140.998,43.824c-6.082-6.932-15-11.314-24.947-11.314c-8.539,0-16.322,3.227-22.203,8.525l-88.595-64.074l159.653-78.217
	c5.97,5.767,14.091,9.32,23.047,9.32c12.658,0,23.658-7.089,29.254-17.512l216.62,31.561c3.089,15.129,16.473,26.511,32.514,26.511
	c18.328,0,33.186-14.857,33.186-33.186c0-4.979-1.104-9.697-3.068-13.935l49.27-48.796l132.688,60.815
	c-0.035,0.635-0.059,1.272-0.059,1.916c0,18.328,14.858,33.186,33.186,33.186c18.328,0,33.186-14.857,33.186-33.186
	c0-5.029-1.125-9.793-3.126-14.063l140.409-129.503c3.217,1.039,6.646,1.607,10.208,1.607c18.327,0,33.186-14.857,33.186-33.185
	c0-18.328-14.858-33.186-33.186-33.186c-18.328,0-33.186,14.857-33.186,33.186c0,6.409,1.822,12.391,4.969,17.464l-138.377,127.629
	c-4.275-2.006-9.047-3.134-14.083-3.134c-9.555,0-18.163,4.045-24.218,10.509L906.92,221.511l80.972-80.194
	c4.312,2.05,9.136,3.2,14.228,3.2c18.328,0,33.186-14.857,33.186-33.185c0-18.328-14.858-33.186-33.186-33.186
	c-18.327,0-33.185,14.857-33.185,33.186c0,4.978,1.104,9.697,3.068,13.935l-87.024,86.187L598.307,80.063
	c0.036-0.634,0.059-1.272,0.059-1.916c0-18.328-14.857-33.186-33.186-33.186c-18.327,0-33.185,14.857-33.185,33.186
	c0,0.888,0.044,1.765,0.113,2.636l-130.726,55.844c-6.057-6.485-14.679-10.545-24.253-10.545c-18.328,0-33.186,14.857-33.186,33.185
	s14.858,33.185,33.186,33.185s33.186-14.857,33.186-33.185c0-0.629-0.021-1.253-0.056-1.873l131.201-56.047
	c6.025,6.159,14.423,9.986,23.719,9.986c9.556,0,18.163-4.045,24.219-10.509l278.432,127.615l-43.219,42.803
	c-4.312-2.05-9.135-3.201-14.229-3.201c-12.658,0-23.657,7.088-29.253,17.512l-216.621-31.561
	c-3.089-15.129-16.472-26.511-32.513-26.511c-18.328,0-33.186,14.858-33.186,33.186c0,1.213,0.069,2.409,0.196,3.587
	l-170.441,83.502L174.891,236.617c0.83-2.904,1.284-5.966,1.284-9.136c0-18.328-14.857-33.185-33.186-33.185
	c-18.328,0-33.185,14.857-33.185,33.185s14.857,33.186,33.185,33.186c6.923,0,13.349-2.122,18.668-5.748L305.59,359.012
	L97.821,460.802c-5.97-5.766-14.091-9.32-23.046-9.32c-18.328,0-33.186,14.857-33.186,33.185s14.857,33.186,33.186,33.186
	c18.328,0,33.185-14.858,33.185-33.186c0-1.213-0.069-2.409-0.196-3.587l218.556-107.075l100.9,72.972
	c-0.2,1.474-0.312,2.976-0.312,4.505c0,18.328,14.857,33.185,33.186,33.185c18.328,0,33.185-14.857,33.185-33.185
	c0-0.26-0.014-0.518-0.02-0.775l140.931-43.802c6.084,6.976,15.032,11.392,25.016,11.392c10.406,0,19.69-4.793,25.774-12.289
	l413.292,97.672c2.093,16.312,16.021,28.922,32.903,28.922c18.328,0,33.185-14.857,33.185-33.186c0-0.889-0.044-1.765-0.114-2.636
	l130.726-55.843c6.057,6.485,14.679,10.545,24.253,10.545c18.328,0,33.186-14.858,33.186-33.186
	C1352.41,399.969,1337.553,385.111,1319.225,385.111z M1237.674,115.473c5.324,0,9.641,4.316,9.641,9.64s-4.316,9.64-9.641,9.64
	s-9.641-4.316-9.641-9.64S1232.35,115.473,1237.674,115.473z M1057.674,288.473c5.324,0,9.64,4.316,9.64,9.64s-4.316,9.64-9.64,9.64
	s-9.64-4.316-9.64-9.64S1052.35,288.473,1057.674,288.473z M1002.674,100.473c5.324,0,9.64,4.316,9.64,9.64s-4.316,9.64-9.64,9.64
	s-9.64-4.316-9.64-9.64S997.35,100.473,1002.674,100.473z M377.674,168.753c-5.324,0-9.64-4.316-9.64-9.64s4.316-9.64,9.64-9.64
	s9.64,4.316,9.64,9.64S382.998,168.753,377.674,168.753z M565.674,86.753c-5.324,0-9.64-4.316-9.64-9.64s4.316-9.64,9.64-9.64
	s9.64,4.316,9.64,9.64S570.998,86.753,565.674,86.753z M810.674,291.473c5.324,0,9.64,4.316,9.64,9.64s-4.316,9.64-9.64,9.64
	s-9.64-4.316-9.64-9.64S805.35,291.473,810.674,291.473z M532.674,250.473c5.324,0,9.64,4.316,9.64,9.64s-4.316,9.64-9.64,9.64
	s-9.64-4.316-9.64-9.64S527.35,250.473,532.674,250.473z M143.674,236.753c-5.324,0-9.64-4.316-9.64-9.64s4.316-9.64,9.64-9.64
	s9.64,4.316,9.64,9.64S148.998,236.753,143.674,236.753z M74.674,493.753c-5.324,0-9.64-4.316-9.64-9.64s4.316-9.64,9.64-9.64
	s9.64,4.316,9.64,9.64S79.998,493.753,74.674,493.753z M460.674,461.753c-5.324,0-9.64-4.316-9.64-9.64s4.316-9.64,9.64-9.64
	s9.64,4.316,9.64,9.64S465.998,461.753,460.674,461.753z M659.674,394.753c-5.324,0-9.641-4.316-9.641-9.64s4.316-9.64,9.641-9.64
	s9.641,4.316,9.641,9.64S664.998,394.753,659.674,394.753z M1132.674,507.753c-5.324,0-9.64-4.316-9.64-9.64s4.316-9.64,9.64-9.64
	s9.64,4.316,9.64,9.64S1137.998,507.753,1132.674,507.753z M1319.674,426.753c-5.324,0-9.641-4.316-9.641-9.64
	s4.316-9.64,9.641-9.64s9.641,4.316,9.641,9.64S1324.998,426.753,1319.674,426.753z"/>
</svg>
