<?xml version="1.0" encoding="utf-8"?>
<!-- Generator: Adobe Illustrator 16.0.4, SVG Export Plug-In . SVG Version: 6.00 Build 0)  -->
<!DOCTYPE svg PUBLIC "-//W3C//DTD SVG 1.1//EN" "http://www.w3.org/Graphics/SVG/1.1/DTD/svg11.dtd">
<svg version="1.1" id="Layer_1" xmlns="http://www.w3.org/2000/svg" xmlns:xlink="http://www.w3.org/1999/xlink" x="0px" y="0px"
	 width="1142.536px" height="347.818px" viewBox="0 0 1142.536 347.818" enable-background="new 0 0 1142.536 347.818"
	 xml:space="preserve">
<path opacity="0.15" fill="#FFFFFF" d="M1110.276,32.611c-17.482,0.331-31.389,14.77-31.06,32.252
	c0.035,1.899,0.248,3.752,0.603,5.553l-58.701,31.73c-5.894-6.06-14.162-9.785-23.28-9.613c-7.729,0.147-14.749,3.055-20.158,7.759
	l-75.295-54.76c2.133-4.368,3.315-9.276,3.219-14.468c-0.33-17.484-14.771-31.389-32.254-31.059
	c-17.481,0.329-31.39,14.768-31.061,32.253c0.148,7.956,3.243,15.15,8.196,20.621l-124.025,87.089
	c-4.714-2.618-10.146-4.091-15.925-3.982c-17.481,0.33-31.388,14.77-31.059,32.252L549.455,84.097c0.664-2-0.2-7.67-0.408-8.881
	c-2.977-17.232-19.357-28.787-36.587-25.812c-17.233,2.977-28.789,19.357-25.812,36.588c0.148,0.865,0.341,1.711,0.556,2.547
	l-81.469,28.698c-6.502-10.987-19.291-17.4-32.618-15.098c-17.23,2.976-28.787,19.356-25.811,36.589
	c1.389,8.038,5.718,14.813,11.665,19.481l-76.695,124.78c-5.191-2.028-10.971-2.746-16.868-1.728
	c-8.625,1.49-15.83,6.341-20.5,12.976l-81.941-42.307c2.208-5.339,3.009-11.331,1.954-17.443
	c-2.976-17.231-19.357-28.786-36.587-25.812c-17.232,2.977-28.789,19.357-25.812,36.589c0.818,4.733,2.674,9.017,5.256,12.71
	l-51.146,38.697c-6.954-8.896-18.449-13.777-30.352-11.723c-17.233,2.978-28.79,19.358-25.812,36.59
	c2.976,17.231,19.357,28.787,36.588,25.812c17.23-2.977,28.788-19.357,25.811-36.589c-0.323-1.872-0.813-3.672-1.437-5.398
	l53.212-40.261c6.744,5.097,15.48,7.524,24.469,5.974c7.616-1.317,14.116-5.256,18.75-10.726l82.726,42.712
	c-1.446,4.64-1.872,9.671-0.987,14.788c2.976,17.232,19.357,28.787,36.589,25.812c17.229-2.977,28.786-19.356,25.811-36.59
	c-1.354-7.841-5.504-14.482-11.226-19.14l76.777-124.915c5.057,1.872,10.648,2.504,16.345,1.52
	c17.23-2.976,28.786-19.356,25.811-36.587c-0.093-0.535-0.235-1.044-0.354-1.566l81.211-29.714
	c6.49,11.02,19.324,17.439,32.674,15.134c10.296-1.779,18.563-8.346,22.916-17.019l135.624,84.645
	c4.761,11.846,16.432,20.123,29.951,19.868c17.483-0.328,31.39-14.769,31.061-32.253c-0.154-8.155-3.405-15.508-8.575-21.024
	l123.919-86.967c4.824,2.793,10.43,4.377,16.412,4.264c8.754-0.164,16.606-3.867,22.228-9.717l74.582,54.239
	c-2.99,4.943-4.691,10.745-4.574,16.947c0.328,17.483,14.77,31.387,32.251,31.058c17.482-0.329,31.391-14.768,31.062-32.251
	c-0.091-4.803-1.277-9.317-3.27-13.36l56.422-30.497c5.524,9.846,16.146,16.415,28.226,16.188
	c17.485-0.33,31.39-14.77,31.061-32.253C1142.2,46.188,1127.76,32.283,1110.276,32.611z M34.707,333.749
	c-9.719,1.68-18.96-4.84-20.638-14.559c-1.679-9.72,4.839-18.959,14.559-20.639c9.72-1.678,18.96,4.841,20.638,14.561
	C50.945,322.831,44.425,332.071,34.707,333.749z M136.763,257.476c-9.72,1.678-18.96-4.841-20.639-14.561
	c-1.68-9.719,4.839-18.959,14.56-20.638c9.719-1.679,18.959,4.84,20.638,14.56C153,246.556,146.481,255.796,136.763,257.476z
	 M273.838,330.062c-9.719,1.68-18.959-4.84-20.638-14.56c-1.68-9.718,4.839-18.959,14.559-20.638
	c9.721-1.679,18.96,4.84,20.639,14.559C290.077,319.144,283.558,328.383,273.838,330.062z M381.545,150.938
	c-9.719,1.679-18.96-4.84-20.638-14.559c-1.68-9.719,4.839-18.961,14.558-20.639c9.72-1.679,18.96,4.84,20.641,14.56
	C397.784,140.019,391.265,149.26,381.545,150.938z M520.886,98.203c-9.719,1.678-18.959-4.84-20.637-14.56
	c-1.68-9.72,4.839-18.959,14.558-20.638c9.719-1.678,18.96,4.84,20.639,14.56C537.125,87.284,530.605,96.524,520.886,98.203z
	 M711.469,185.499c-9.862,0.187-18.008-7.658-18.193-17.52c-0.186-9.861,7.658-18.007,17.519-18.193
	c9.861-0.185,18.006,7.659,18.193,17.52C729.174,177.167,721.33,185.313,711.469,185.499z M874.281,49.518
	c-9.861,0.186-18.007-7.658-18.193-17.52c-0.184-9.861,7.659-18.006,17.522-18.193c9.86-0.186,18.005,7.659,18.19,17.521
	C891.988,41.186,884.143,49.332,874.281,49.518z M998.771,142.046c-9.861,0.186-18.008-7.659-18.194-17.521
	c-0.186-9.861,7.659-18.006,17.521-18.191s18.006,7.658,18.192,17.52C1016.476,133.715,1008.634,141.861,998.771,142.046z
	 M1111.209,82.124c-9.862,0.186-18.008-7.658-18.192-17.521c-0.187-9.86,7.658-18.006,17.52-18.191
	c9.861-0.187,18.006,7.657,18.191,17.52C1128.916,73.792,1121.07,81.939,1111.209,82.124z"/>
</svg>
