<svg xmlns="http://www.w3.org/2000/svg" width="1420" height="572" viewBox="0 0 1420 572"><path opacity=".03" fill="#fff" d="M1319.225 385.111c-18.327 0-33.186 14.857-33.186 33.186 0 .629.021 1.253.057 1.873l-131.202 56.047c-6.025-6.159-14.423-9.986-23.719-9.986-11.781 0-22.121 6.145-28.01 15.399l-410.789-97.081c-.302-18.067-15.032-32.624-33.171-32.624-18.328 0-33.186 14.858-33.186 33.186l.018.676-140.998 43.824c-6.082-6.932-15-11.314-24.947-11.314-8.539 0-16.322 3.227-22.203 8.525l-88.595-64.074 159.653-78.217c5.97 5.767 14.091 9.32 23.047 9.32 12.658 0 23.658-7.089 29.254-17.512l216.62 31.561c3.089 15.129 16.473 26.511 32.514 26.511 18.328 0 33.186-14.857 33.186-33.186 0-4.979-1.104-9.697-3.068-13.935l49.27-48.796 132.688 60.815c-.035.635-.059 1.272-.059 1.916 0 18.328 14.858 33.186 33.186 33.186s33.186-14.857 33.186-33.186c0-5.029-1.125-9.793-3.126-14.063l140.409-129.503c3.217 1.039 6.646 1.607 10.208 1.607 18.327 0 33.186-14.857 33.186-33.185 0-18.328-14.858-33.186-33.186-33.186s-33.186 14.857-33.186 33.186c0 6.409 1.822 12.391 4.969 17.464l-138.377 127.629c-4.275-2.006-9.047-3.134-14.083-3.134-9.555 0-18.163 4.045-24.218 10.509l-124.447-57.038 80.972-80.194c4.312 2.05 9.136 3.2 14.228 3.2 18.328 0 33.186-14.857 33.186-33.185 0-18.328-14.858-33.186-33.186-33.186-18.327 0-33.185 14.857-33.185 33.186 0 4.978 1.104 9.697 3.068 13.935l-87.024 86.187-286.672-131.391c.036-.634.059-1.272.059-1.916 0-18.328-14.857-33.186-33.186-33.186-18.327 0-33.185 14.857-33.185 33.186 0 .888.044 1.765.113 2.636l-130.726 55.844c-6.057-6.485-14.679-10.545-24.253-10.545-18.328 0-33.186 14.857-33.186 33.185s14.858 33.185 33.186 33.185 33.186-14.857 33.186-33.185c0-.629-.021-1.253-.056-1.873l131.201-56.047c6.025 6.159 14.423 9.986 23.719 9.986 9.556 0 18.163-4.045 24.219-10.509l278.432 127.615-43.219 42.803c-4.312-2.05-9.135-3.201-14.229-3.201-12.658 0-23.657 7.088-29.253 17.512l-216.621-31.561c-3.089-15.129-16.472-26.511-32.513-26.511-18.328 0-33.186 14.858-33.186 33.186 0 1.213.069 2.409.196 3.587l-170.441 83.502-153.673-111.139c.83-2.904 1.284-5.966 1.284-9.136 0-18.328-14.857-33.185-33.186-33.185-18.328 0-33.185 14.857-33.185 33.185s14.857 33.186 33.185 33.186c6.923 0 13.349-2.122 18.668-5.748l143.933 104.093-207.769 101.79c-5.97-5.766-14.091-9.32-23.046-9.32-18.328 0-33.186 14.857-33.186 33.185s14.857 33.186 33.186 33.186c18.328 0 33.185-14.858 33.185-33.186 0-1.213-.069-2.409-.196-3.587l218.556-107.075 100.9 72.972c-.2 1.474-.312 2.976-.312 4.505 0 18.328 14.857 33.185 33.186 33.185 18.328 0 33.185-14.857 33.185-33.185l-.02-.775 140.931-43.802c6.084 6.976 15.032 11.392 25.016 11.392 10.406 0 19.69-4.793 25.774-12.289l413.292 97.672c2.093 16.312 16.021 28.922 32.903 28.922 18.328 0 33.185-14.857 33.185-33.186 0-.889-.044-1.765-.114-2.636l130.726-55.843c6.057 6.485 14.679 10.545 24.253 10.545 18.328 0 33.186-14.858 33.186-33.186-.001-18.327-14.858-33.185-33.186-33.185zm-81.551-269.638c5.324 0 9.641 4.316 9.641 9.64s-4.316 9.64-9.641 9.64-9.641-4.316-9.641-9.64 4.317-9.64 9.641-9.64zm-180 173c5.324 0 9.64 4.316 9.64 9.64s-4.316 9.64-9.64 9.64-9.64-4.316-9.64-9.64 4.316-9.64 9.64-9.64zm-55-188c5.324 0 9.64 4.316 9.64 9.64s-4.316 9.64-9.64 9.64-9.64-4.316-9.64-9.64 4.316-9.64 9.64-9.64zm-625 68.28c-5.324 0-9.64-4.316-9.64-9.64s4.316-9.64 9.64-9.64 9.64 4.316 9.64 9.64-4.316 9.64-9.64 9.64zm188-82c-5.324 0-9.64-4.316-9.64-9.64s4.316-9.64 9.64-9.64 9.64 4.316 9.64 9.64-4.316 9.64-9.64 9.64zm245 204.72c5.324 0 9.64 4.316 9.64 9.64s-4.316 9.64-9.64 9.64-9.64-4.316-9.64-9.64 4.316-9.64 9.64-9.64zm-278-41c5.324 0 9.64 4.316 9.64 9.64s-4.316 9.64-9.64 9.64-9.64-4.316-9.64-9.64 4.316-9.64 9.64-9.64zm-389-13.72c-5.324 0-9.64-4.316-9.64-9.64s4.316-9.64 9.64-9.64 9.64 4.316 9.64 9.64-4.316 9.64-9.64 9.64zm-69 257c-5.324 0-9.64-4.316-9.64-9.64s4.316-9.64 9.64-9.64 9.64 4.316 9.64 9.64-4.316 9.64-9.64 9.64zm386-32c-5.324 0-9.64-4.316-9.64-9.64s4.316-9.64 9.64-9.64 9.64 4.316 9.64 9.64-4.316 9.64-9.64 9.64zm199-67c-5.324 0-9.641-4.316-9.641-9.64s4.316-9.64 9.641-9.64 9.641 4.316 9.641 9.64-4.317 9.64-9.641 9.64zm473 113c-5.324 0-9.64-4.316-9.64-9.64s4.316-9.64 9.64-9.64 9.64 4.316 9.64 9.64-4.316 9.64-9.64 9.64zm187-81c-5.324 0-9.641-4.316-9.641-9.64s4.316-9.64 9.641-9.64 9.641 4.316 9.641 9.64-4.317 9.64-9.641 9.64z"/></svg>