<svg xmlns="http://www.w3.org/2000/svg" width="145.805" height="33.512" viewBox="0 0 145.805 33.512"><path fill="#3E4042" d="M59.495 27.927h-3.988c0-2.037.018-4.065-.009-6.092-.012-.795-.074-1.598-.202-2.381-.17-1.042-.759-1.718-1.902-1.637-1.211.086-1.878.83-1.922 1.991-.074 2-.042 4.004-.053 6.006l-.001 2.072h-4.194c0-2.205.021-4.414-.011-6.622-.01-.704.011-1.483-.279-2.086-.267-.555-.895-1.213-1.433-1.282-.558-.071-1.381.37-1.75.849-.391.505-.505 1.313-.522 1.997-.059 2.351-.021 4.706-.021 7.148h-4.129v-13.191h3.48l.188 1.459c3.494-2.527 5.714-2.44 7.796.143.993-.589 1.903-1.353 2.954-1.712 2.889-.991 5.679.659 5.939 3.734.265 3.126.059 6.293.059 9.604zM66.998 26.949v6.562h-4.175v-18.803h3.533l.155 1.365c1.046-.522 2.011-1.18 3.075-1.499 2.519-.76 4.95.287 6.3 2.538 1.916 3.193 1.116 8.088-1.722 10.034-2.325 1.598-4.712 1.561-7.166-.197zm5.597-5.616c0-2.542-1.606-4.088-3.661-3.521-1.472.406-2.025 1.598-1.947 4.188.051 1.656.786 2.637 2.18 2.912 1.908.377 3.428-1.209 3.428-3.579zM21.794 9.918l-.861 3.19c-3.306-.867-6.571-1.301-8.642 2.05-1.452 2.347-1.435 5.027.206 7.309 2.126 2.958 5.217 2.5 8.416 1.749l.654 3.157c-4.128 2.008-10.237.802-12.825-2.456-2.623-3.301-2.519-9.07.225-12.438 2.717-3.334 8.734-4.578 12.827-2.561zM123.606 14.366c4.214.005 6.985 2.749 6.971 6.899-.017 4.211-2.896 6.989-7.242 6.982-4.197-.006-7.092-2.801-7.094-6.852-.002-4.221 2.945-7.034 7.365-7.029zm2.653 6.935c-.23-.862-.331-1.766-.706-2.534-.874-1.79-3.187-1.882-4.161-.159-.979 1.732-1.034 3.621.007 5.31.388.627 1.43 1.208 2.146 1.177.711-.03 1.574-.724 2.029-1.367.446-.634.465-1.57.685-2.427zM97.713 27.945h-4.158v-13.227h3.524l.146 1.288c1.184-.54 2.314-1.353 3.548-1.564 3.29-.565 5.555 1.49 5.705 5.054.102 2.353.027 4.712.031 7.068v1.308h-4.245c0-2.108.014-4.229-.007-6.348-.007-.662-.062-1.33-.174-1.981-.179-1.033-.769-1.684-1.877-1.724-1.111-.038-1.935.471-2.237 1.519-.218.749-.233 1.571-.246 2.362-.031 2.037-.01 4.075-.01 6.245zM136.989 27.945h-4.156v-13.228h3.523l.146 1.288c1.184-.541 2.314-1.353 3.55-1.563 3.29-.563 5.566 1.491 5.702 5.056.104 2.75.021 5.508.021 8.374h-4.231c0-2.111.014-4.23-.009-6.35-.007-.662-.062-1.33-.175-1.98-.178-1.034-.769-1.684-1.878-1.722-1.11-.038-1.933.474-2.235 1.52-.219.749-.232 1.572-.244 2.362-.034 2.038-.014 4.075-.014 6.243zM90.498 27.921h-3.576l-.342-1.023-.431.161c-1.193.396-2.369 1.029-3.589 1.134-2.058.176-3.7-1.13-4.223-2.964-.52-1.815.141-3.971 1.89-4.844 1.468-.732 3.176-.989 4.787-1.426.333-.09.703-.044 1.06-.062-.265-1.863-2.125-2.118-5.967-.855-.065-.043-.175-.075-.198-.141-.953-2.523-.852-2.819 1.825-3.229 1.514-.231 3.119-.343 4.615-.098 2.717.445 4.115 2.302 4.143 5.059.025 2.707.006 5.416.006 8.288zm-4.341-6.475c-.979.248-1.912.36-2.734.725-.938.414-1.239 1.312-.804 2.235.421.888 1.241 1.049 2.156.732 1.334-.46 1.684-1.29 1.382-3.692z"/><path fill="#0A8BCC" d="M4.055 27.854h-3.88v-13.065h3.88v13.065zM109.699 14.755h3.883v13.078h-3.883v-13.078zM4.268 10.67c-.001 1.165-.933 2.03-2.169 2.011-1.159-.017-2.062-.864-2.098-1.968-.037-1.167.865-2.044 2.12-2.058 1.269-.014 2.149.81 2.147 2.015z"/><path fill="#3E4042" d="M29.865 14.366c-4.439-.012-7.369 2.753-7.407 6.988-.036 4.038 2.869 6.88 7.049 6.895 4.362.016 7.261-2.746 7.284-6.938.023-4.17-2.734-6.935-6.926-6.945zm1.896 9.472c-.883 1.777-3.188 1.853-4.166.128-.984-1.737-.963-3.595-.004-5.333.957-1.735 3.279-1.669 4.165.107.381.766.485 1.669.728 2.557-.239.874-.342 1.777-.723 2.541z"/><path fill="#0A8BCC" d="M111.705 8.851c-1.185.006-2.155-.92-2.168-2.065-.013-1.123.981-2.125 2.124-2.14 1.172-.015 2.113.915 2.127 2.098.011 1.223-.856 2.1-2.083 2.107zM109.002 11.553c-.131 0-.266-.037-.384-.115-1.588-1.037-2.535-2.788-2.535-4.685 0-1.905.954-3.661 2.554-4.697.325-.211.763-.118.974.208s.117.762-.209.974c-1.195.776-1.909 2.09-1.909 3.517 0 1.42.709 2.73 1.896 3.506.325.212.418.649.205.975-.136.204-.361.317-.592.317zM114.304 11.544c-.223 0-.44-.105-.578-.3-.223-.319-.145-.759.174-.98 1.192-.833 1.933-2.167 1.933-3.479 0-1.44-.726-2.762-1.938-3.534-.328-.208-.425-.645-.216-.973.208-.327.644-.425.971-.216 1.623 1.033 2.592 2.798 2.592 4.723 0 1.766-.971 3.542-2.532 4.634-.127.084-.266.125-.406.125zM106.939 13.496c-.149 0-.303-.048-.431-.148-2.085-1.614-3.28-4.054-3.28-6.691-.001-2.514 1.104-4.879 3.031-6.491.299-.249.742-.21.991.088.25.298.21.742-.088.992-1.606 1.344-2.527 3.315-2.526 5.411 0 2.199.996 4.232 2.734 5.579.308.238.362.681.125.987-.138.178-.346.273-.556.273zM116.419 13.466c-.209 0-.415-.092-.556-.271-.238-.306-.187-.748.12-.987 1.719-1.347 2.703-3.371 2.703-5.555 0-2.078-.91-4.041-2.495-5.384-.296-.251-.334-.694-.083-.992.252-.297.697-.334.992-.083 1.902 1.611 2.994 3.966 2.994 6.458 0 2.619-1.183 5.048-3.243 6.662-.127.103-.28.152-.432.152z"/></svg>