<svg xmlns="http://www.w3.org/2000/svg" width="250.744" height="200.598" viewBox="0 0 250.744 200.598"><path fill-rule="evenodd" clip-rule="evenodd" fill="#F8F7F4" d="M126.021 131.555c-17.599.094-32.062-13.684-32.227-30.71-.178-16.69 14.597-31.579 31.572-31.797 17.41-.223 31.427 13.591 31.593 31.173.2 18.195-12.687 31.24-30.938 31.334z"/><path fill="#F8F7F4" d="M85.862 171.724c-1.974 0-3.945-.55-5.71-1.702-23.6-15.408-37.688-41.446-37.688-69.646 0-28.312 14.183-54.413 37.938-69.82 4.858-3.135 11.337-1.754 14.483 3.093 3.135 4.843 1.754 11.328-3.095 14.473-17.784 11.53-28.396 31.059-28.396 52.254 0 21.108 10.538 40.595 28.198 52.12 4.839 3.156 6.199 9.645 3.032 14.483-1.993 3.069-5.356 4.745-8.762 4.745zM164.654 171.6c-3.303 0-6.551-1.562-8.587-4.47-3.312-4.735-2.159-11.26 2.575-14.571 17.712-12.387 28.718-32.211 28.718-51.735 0-21.403-10.777-41.046-28.822-52.534-4.879-3.099-6.312-9.573-3.208-14.442 3.095-4.88 9.571-6.313 14.442-3.214 24.118 15.356 38.518 41.592 38.518 70.19 0 26.247-14.432 52.644-37.646 68.887-1.827 1.275-3.924 1.889-5.99 1.889zM55.172 200.598c-2.242 0-4.485-.717-6.395-2.196-31.002-24-48.777-60.265-48.777-99.479 0-37.35 16.425-72.515 45.07-96.487 4.443-3.701 11.037-3.121 14.743 1.308 3.707 4.438 3.125 11.037-1.308 14.742-23.88 19.981-37.573 49.301-37.573 80.437 0 32.694 14.826 62.923 40.656 82.935 4.568 3.54 5.398 10.112 1.869 14.68-2.065 2.657-5.15 4.06-8.285 4.06zM196.102 200.166c-3.103 0-6.188-1.375-8.244-4.007-3.57-4.554-2.771-11.124 1.775-14.692 25.531-20.011 40.19-50.104 40.19-82.56 0-30.897-13.518-60.067-37.085-80.037-4.424-3.732-4.964-10.335-1.226-14.743 3.718-4.413 10.341-4.963 14.742-1.219 28.271 23.946 44.489 58.935 44.489 95.999 0 38.935-17.567 75.028-48.195 99.032-1.92 1.496-4.184 2.227-6.446 2.227z"/></svg>