<?xml version="1.0" encoding="utf-8"?>
<!-- Generator: Adobe Illustrator 16.0.4, SVG Export Plug-In . SVG Version: 6.00 Build 0)  -->
<!DOCTYPE svg PUBLIC "-//W3C//DTD SVG 1.1//EN" "http://www.w3.org/Graphics/SVG/1.1/DTD/svg11.dtd">
<svg version="1.1" id="Layer_1" xmlns="http://www.w3.org/2000/svg" xmlns:xlink="http://www.w3.org/1999/xlink" x="0px" y="0px"
	 width="145.805px" height="33.512px" viewBox="0 0 145.805 33.512" enable-background="new 0 0 145.805 33.512"
	 xml:space="preserve">
<g>
	<g>
		<path fill="#3E4042" d="M59.495,27.927c-1.242,0-2.521,0-3.988,0c0-2.037,0.018-4.065-0.009-6.092
			c-0.012-0.795-0.074-1.598-0.202-2.381c-0.17-1.042-0.759-1.718-1.902-1.637c-1.211,0.086-1.878,0.83-1.922,1.991
			c-0.074,2-0.042,4.004-0.053,6.006c-0.003,0.66-0.001,1.32-0.001,2.072c-1.413,0-2.719,0-4.194,0c0-2.205,0.021-4.414-0.011-6.622
			c-0.01-0.704,0.011-1.483-0.279-2.086c-0.267-0.555-0.895-1.213-1.433-1.282c-0.558-0.071-1.381,0.37-1.75,0.849
			c-0.391,0.505-0.505,1.313-0.522,1.997c-0.059,2.351-0.021,4.706-0.021,7.148c-1.388,0-2.696,0-4.129,0c0-4.373,0-8.749,0-13.191
			c1.139,0,2.274,0,3.48,0c0.064,0.501,0.122,0.956,0.188,1.459c3.494-2.527,5.714-2.44,7.796,0.143
			c0.993-0.589,1.903-1.353,2.954-1.712c2.889-0.991,5.679,0.659,5.939,3.734C59.701,21.449,59.495,24.616,59.495,27.927z"/>
		<path fill="#3E4042" d="M66.998,26.949c0,2.26,0,4.371,0,6.562c-1.424,0-2.739,0-4.175,0c0-6.233,0-12.479,0-18.803
			c1.154,0,2.331,0,3.533,0c0.061,0.532,0.113,1,0.155,1.365c1.046-0.522,2.011-1.18,3.075-1.499c2.519-0.76,4.95,0.287,6.3,2.538
			c1.916,3.193,1.116,8.088-1.722,10.034C71.839,28.744,69.452,28.707,66.998,26.949z M72.595,21.333
			c0-2.542-1.606-4.088-3.661-3.521c-1.472,0.406-2.025,1.598-1.947,4.188c0.051,1.656,0.786,2.637,2.18,2.912
			C71.075,25.289,72.595,23.703,72.595,21.333z"/>
		<path fill="#3E4042" d="M21.794,9.918c-0.292,1.082-0.566,2.098-0.861,3.19c-3.306-0.867-6.571-1.301-8.642,2.05
			c-1.452,2.347-1.435,5.027,0.206,7.309c2.126,2.958,5.217,2.5,8.416,1.749c0.226,1.087,0.442,2.136,0.654,3.157
			c-4.128,2.008-10.237,0.802-12.825-2.456c-2.623-3.301-2.519-9.07,0.225-12.438C11.684,9.145,17.701,7.901,21.794,9.918z"/>
		<path fill="#3E4042" d="M123.606,14.366c4.214,0.005,6.985,2.749,6.971,6.899c-0.017,4.211-2.896,6.989-7.242,6.982
			c-4.197-0.006-7.092-2.801-7.094-6.852C116.239,17.174,119.186,14.361,123.606,14.366z M126.259,21.301
			c-0.23-0.862-0.331-1.766-0.706-2.534c-0.874-1.79-3.187-1.882-4.161-0.159c-0.979,1.732-1.034,3.621,0.007,5.31
			c0.388,0.627,1.43,1.208,2.146,1.177c0.711-0.03,1.574-0.724,2.029-1.367C126.02,23.094,126.039,22.158,126.259,21.301z"/>
		<path fill="#3E4042" d="M97.713,27.945c-1.468,0-2.75,0-4.158,0c0-4.393,0-8.766,0-13.227c1.124,0,2.299,0,3.524,0
			c0.057,0.505,0.11,0.976,0.146,1.288c1.184-0.54,2.314-1.353,3.548-1.564c3.29-0.565,5.555,1.49,5.705,5.054
			c0.102,2.353,0.027,4.712,0.031,7.068c0,0.398,0,0.797,0,1.308c-1.396,0-2.741,0-4.245,0c0-2.108,0.014-4.229-0.007-6.348
			c-0.007-0.662-0.062-1.33-0.174-1.981c-0.179-1.033-0.769-1.684-1.877-1.724c-1.111-0.038-1.935,0.471-2.237,1.519
			c-0.218,0.749-0.233,1.571-0.246,2.362C97.692,23.737,97.713,25.775,97.713,27.945z"/>
		<path fill="#3E4042" d="M136.989,27.945c-1.469,0-2.751,0-4.156,0c0-4.395,0-8.768,0-13.228c1.127,0,2.301,0,3.523,0
			c0.059,0.507,0.11,0.978,0.146,1.288c1.184-0.541,2.314-1.353,3.55-1.563c3.29-0.563,5.566,1.491,5.702,5.056
			c0.104,2.75,0.021,5.508,0.021,8.374c-1.385,0-2.729,0-4.231,0c0-2.111,0.014-4.23-0.009-6.35c-0.007-0.662-0.062-1.33-0.175-1.98
			c-0.178-1.034-0.769-1.684-1.878-1.722c-1.11-0.038-1.933,0.474-2.235,1.52c-0.219,0.749-0.232,1.572-0.244,2.362
			C136.969,23.74,136.989,25.777,136.989,27.945z"/>
		<path fill="#3E4042" d="M90.498,27.921c-1.081,0-2.271,0-3.576,0c-0.098-0.293-0.214-0.64-0.342-1.023
			c-0.203,0.076-0.315,0.123-0.431,0.161c-1.193,0.396-2.369,1.029-3.589,1.134c-2.058,0.176-3.7-1.13-4.223-2.964
			c-0.52-1.815,0.141-3.971,1.89-4.844c1.468-0.732,3.176-0.989,4.787-1.426c0.333-0.09,0.703-0.044,1.06-0.062
			c-0.265-1.863-2.125-2.118-5.967-0.855c-0.065-0.043-0.175-0.075-0.198-0.141c-0.953-2.523-0.852-2.819,1.825-3.229
			c1.514-0.231,3.119-0.343,4.615-0.098c2.717,0.445,4.115,2.302,4.143,5.059C90.517,22.34,90.498,25.049,90.498,27.921z
			 M86.157,21.446c-0.979,0.248-1.912,0.36-2.734,0.725c-0.938,0.414-1.239,1.312-0.804,2.235c0.421,0.888,1.241,1.049,2.156,0.732
			C86.109,24.678,86.459,23.848,86.157,21.446z"/>
		<path fill="#0A8BCC" d="M4.055,27.854c-1.299,0-2.528,0-3.88,0c0-4.332,0-8.652,0-13.065c1.288,0,2.545,0,3.88,0
			C4.055,19.11,4.055,23.402,4.055,27.854z"/>
		<path fill="#0A8BCC" d="M109.699,14.755c1.326,0,2.556,0,3.883,0c0,4.346,0,8.669,0,13.078c-1.27,0-2.528,0-3.883,0
			C109.699,23.466,109.699,19.14,109.699,14.755z"/>
		<path fill="#0A8BCC" d="M4.268,10.67c-0.001,1.165-0.933,2.03-2.169,2.011c-1.159-0.017-2.062-0.864-2.098-1.968
			c-0.037-1.167,0.865-2.044,2.12-2.058C3.39,8.641,4.27,9.465,4.268,10.67z"/>
		<path fill="#3E4042" d="M29.865,14.366c-4.439-0.012-7.369,2.753-7.407,6.988c-0.036,4.038,2.869,6.88,7.049,6.895
			c4.362,0.016,7.261-2.746,7.284-6.938C36.814,17.141,34.057,14.376,29.865,14.366z M31.761,23.838
			c-0.883,1.777-3.188,1.853-4.166,0.128c-0.984-1.737-0.963-3.595-0.004-5.333c0.957-1.735,3.279-1.669,4.165,0.107
			c0.381,0.766,0.485,1.669,0.728,2.557C32.245,22.171,32.142,23.074,31.761,23.838z"/>
		<g>
			<g>
				<path fill="#0A8BCC" d="M111.705,8.851c-1.185,0.006-2.155-0.92-2.168-2.065c-0.013-1.123,0.981-2.125,2.124-2.14
					c1.172-0.015,2.113,0.915,2.127,2.098C113.799,7.967,112.932,8.844,111.705,8.851z"/>
			</g>
			<g>
				<g>
					<path fill="#0A8BCC" d="M109.002,11.553c-0.131,0-0.266-0.037-0.384-0.115c-1.588-1.037-2.535-2.788-2.535-4.685
						c0-1.905,0.954-3.661,2.554-4.697c0.325-0.211,0.763-0.118,0.974,0.208s0.117,0.762-0.209,0.974
						c-1.195,0.776-1.909,2.09-1.909,3.517c0,1.42,0.709,2.73,1.896,3.506c0.325,0.212,0.418,0.649,0.205,0.975
						C109.458,11.44,109.233,11.553,109.002,11.553z"/>
				</g>
				<g>
					<path fill="#0A8BCC" d="M114.304,11.544c-0.223,0-0.44-0.105-0.578-0.3c-0.223-0.319-0.145-0.759,0.174-0.98
						c1.192-0.833,1.933-2.167,1.933-3.479c0-1.44-0.726-2.762-1.938-3.534c-0.328-0.208-0.425-0.645-0.216-0.973
						c0.208-0.327,0.644-0.425,0.971-0.216c1.623,1.033,2.592,2.798,2.592,4.723c0,1.766-0.971,3.542-2.532,4.634
						C114.583,11.503,114.444,11.544,114.304,11.544z"/>
				</g>
				<g>
					<path fill="#0A8BCC" d="M106.939,13.496c-0.149,0-0.303-0.048-0.431-0.148c-2.085-1.614-3.28-4.054-3.28-6.691
						c-0.001-2.514,1.104-4.879,3.031-6.491c0.299-0.249,0.742-0.21,0.991,0.088c0.25,0.298,0.21,0.742-0.088,0.992
						c-1.606,1.344-2.527,3.315-2.526,5.411c0,2.199,0.996,4.232,2.734,5.579c0.308,0.238,0.362,0.681,0.125,0.987
						C107.357,13.401,107.149,13.496,106.939,13.496z"/>
				</g>
				<g>
					<path fill="#0A8BCC" d="M116.419,13.466c-0.209,0-0.415-0.092-0.556-0.271c-0.238-0.306-0.187-0.748,0.12-0.987
						c1.719-1.347,2.703-3.371,2.703-5.555c0-2.078-0.91-4.041-2.495-5.384c-0.296-0.251-0.334-0.694-0.083-0.992
						c0.252-0.297,0.697-0.334,0.992-0.083c1.902,1.611,2.994,3.966,2.994,6.458c0,2.619-1.183,5.048-3.243,6.662
						C116.724,13.417,116.571,13.466,116.419,13.466z"/>
				</g>
			</g>
		</g>
	</g>
</g>
</svg>
