<?xml version="1.0" encoding="utf-8"?>
<!-- Generator: Adobe Illustrator 16.0.4, SVG Export Plug-In . SVG Version: 6.00 Build 0)  -->
<!DOCTYPE svg PUBLIC "-//W3C//DTD SVG 1.1//EN" "http://www.w3.org/Graphics/SVG/1.1/DTD/svg11.dtd">
<svg version="1.1" id="Layer_1" xmlns="http://www.w3.org/2000/svg" xmlns:xlink="http://www.w3.org/1999/xlink" x="0px" y="0px"
	 width="250.744px" height="200.598px" viewBox="0 0 250.744 200.598" enable-background="new 0 0 250.744 200.598"
	 xml:space="preserve">
<g>
	<g>
		<path fill-rule="evenodd" clip-rule="evenodd" fill="#F8F7F4" d="M126.021,131.555c-17.599,0.094-32.062-13.684-32.227-30.71
			c-0.178-16.69,14.597-31.579,31.572-31.797c17.41-0.223,31.427,13.591,31.593,31.173
			C157.159,118.416,144.272,131.461,126.021,131.555z"/>
	</g>
	<g>
		<g>
			<path fill="#F8F7F4" d="M85.862,171.724c-1.974,0-3.945-0.55-5.71-1.702c-23.6-15.408-37.688-41.446-37.688-69.646
				c0-28.312,14.183-54.413,37.938-69.82c4.858-3.135,11.337-1.754,14.483,3.093c3.135,4.843,1.754,11.328-3.095,14.473
				c-17.784,11.53-28.396,31.059-28.396,52.254c0,21.108,10.538,40.595,28.198,52.12c4.839,3.156,6.199,9.645,3.032,14.483
				C92.631,170.048,89.268,171.724,85.862,171.724z"/>
		</g>
		<g>
			<path fill="#F8F7F4" d="M164.654,171.6c-3.303,0-6.551-1.562-8.587-4.47c-3.312-4.735-2.159-11.26,2.575-14.571
				c17.712-12.387,28.718-32.211,28.718-51.735c0-21.403-10.777-41.046-28.822-52.534c-4.879-3.099-6.312-9.573-3.208-14.442
				c3.095-4.88,9.571-6.313,14.442-3.214c24.118,15.356,38.518,41.592,38.518,70.19c0,26.247-14.432,52.644-37.646,68.887
				C168.817,170.986,166.72,171.6,164.654,171.6z"/>
		</g>
		<g>
			<path fill="#F8F7F4" d="M55.172,200.598c-2.242,0-4.485-0.717-6.395-2.196C17.775,174.402,0,138.137,0,98.923
				c0-37.35,16.425-72.515,45.07-96.487c4.443-3.701,11.037-3.121,14.743,1.308c3.707,4.438,3.125,11.037-1.308,14.742
				C34.625,38.467,20.932,67.787,20.932,98.923c0,32.694,14.826,62.923,40.656,82.935c4.568,3.54,5.398,10.112,1.869,14.68
				C61.392,199.195,58.307,200.598,55.172,200.598z"/>
		</g>
		<g>
			<path fill="#F8F7F4" d="M196.102,200.166c-3.103,0-6.188-1.375-8.244-4.007c-3.57-4.554-2.771-11.124,1.775-14.692
				c25.531-20.011,40.19-50.104,40.19-82.56c0-30.897-13.518-60.067-37.085-80.037c-4.424-3.732-4.964-10.335-1.226-14.743
				c3.718-4.413,10.341-4.963,14.742-1.219c28.271,23.946,44.489,58.935,44.489,95.999c0,38.935-17.567,75.028-48.195,99.032
				C200.628,199.435,198.364,200.166,196.102,200.166z"/>
		</g>
	</g>
</g>
</svg>
