<?xml version="1.0" encoding="utf-8"?>
<!-- Generator: Adobe Illustrator 16.0.4, SVG Export Plug-In . SVG Version: 6.00 Build 0)  -->
<!DOCTYPE svg PUBLIC "-//W3C//DTD SVG 1.1//EN" "http://www.w3.org/Graphics/SVG/1.1/DTD/svg11.dtd">
<svg version="1.1" id="Layer_1" xmlns="http://www.w3.org/2000/svg" xmlns:xlink="http://www.w3.org/1999/xlink" x="0px" y="0px"
	 width="151.333px" height="133.666px" viewBox="0 0 151.333 133.666" enable-background="new 0 0 151.333 133.666"
	 xml:space="preserve">
<g>
	<line fill="none" stroke="#3085B5" stroke-width="4" stroke-miterlimit="10" x1="19.537" y1="94.672" x2="61.188" y2="58.14"/>
	<line fill="none" stroke="#3085B5" stroke-width="4" stroke-miterlimit="10" x1="61.188" y1="58.14" x2="97.836" y2="113.668"/>
	<line fill="none" stroke="#3085B5" stroke-width="4" stroke-miterlimit="10" x1="97.836" y1="113.668" x2="131.797" y2="45.105"/>
	<path fill="#FFFFFF" stroke="#3085B5" stroke-width="4" stroke-miterlimit="10" d="M140.374,45.112c0,4.726-3.84,8.567-8.587,8.567
		c-4.728,0-8.566-3.841-8.566-8.567c0-4.739,3.839-8.581,8.566-8.581C136.534,36.531,140.374,40.373,140.374,45.112z"/>
	<path fill="#FFFFFF" stroke="#3085B5" stroke-width="4" stroke-miterlimit="10" d="M105.865,113.674
		c0,4.725-3.841,8.566-8.587,8.566c-4.729,0-8.566-3.842-8.566-8.566c0-4.74,3.838-8.582,8.566-8.582
		C102.024,105.092,105.865,108.934,105.865,113.674z"/>
	<path fill="#FFFFFF" stroke="#3085B5" stroke-width="4" stroke-miterlimit="10" d="M69.765,57.218c0,4.727-3.84,8.566-8.587,8.566
		c-4.729,0-8.566-3.84-8.566-8.566c0-4.738,3.838-8.581,8.566-8.581C65.925,48.637,69.765,52.479,69.765,57.218z"/>
	<path fill="#FFFFFF" stroke="#3085B5" stroke-width="4" stroke-miterlimit="10" d="M28.114,95.227c0,4.725-3.841,8.566-8.587,8.566
		c-4.729,0-8.567-3.842-8.567-8.566c0-4.74,3.839-8.582,8.567-8.582C24.273,86.645,28.114,90.487,28.114,95.227z"/>
	<line fill="none" stroke="#3085B5" stroke-width="4" stroke-miterlimit="10" x1="19.537" y1="36.531" x2="59.297" y2="25.372"/>
	<line fill="none" stroke="#3085B5" stroke-width="4" stroke-miterlimit="10" x1="59.297" y1="25.372" x2="97.288" y2="70.143"/>
	<line fill="none" stroke="#3085B5" stroke-width="4" stroke-miterlimit="10" x1="97.288" y1="70.143" x2="131.796" y2="94.672"/>
	<path fill="#FFFFFF" stroke="#3085B5" stroke-width="4" stroke-miterlimit="10" d="M28.114,36.538c0,4.725-3.841,8.567-8.587,8.567
		c-4.729,0-8.567-3.843-8.567-8.567c0-4.739,3.839-8.581,8.567-8.581C24.273,27.957,28.114,31.798,28.114,36.538z"/>
	<path fill="#FFFFFF" stroke="#3085B5" stroke-width="4" stroke-miterlimit="10" d="M67.875,25.378c0,4.725-3.84,8.566-8.587,8.566
		c-4.729,0-8.566-3.842-8.566-8.566c0-4.739,3.838-8.582,8.566-8.582C64.035,16.796,67.875,20.639,67.875,25.378z"/>
	<path fill="#FFFFFF" stroke="#3085B5" stroke-width="4" stroke-miterlimit="10" d="M105.865,70.149
		c0,4.725-3.841,8.568-8.587,8.568c-4.729,0-8.566-3.844-8.566-8.568c0-4.738,3.838-8.582,8.566-8.582
		C102.024,61.567,105.865,65.411,105.865,70.149z"/>
	<path fill="#FFFFFF" stroke="#3085B5" stroke-width="4" stroke-miterlimit="10" d="M140.374,94.68c0,4.725-3.84,8.568-8.587,8.568
		c-4.728,0-8.566-3.844-8.566-8.568c0-4.738,3.839-8.582,8.566-8.582C136.534,86.098,140.374,89.942,140.374,94.68z"/>
</g>
</svg>
