<?xml version="1.0" encoding="utf-8"?>
<!-- Generator: Adobe Illustrator 16.0.4, SVG Export Plug-In . SVG Version: 6.00 Build 0)  -->
<!DOCTYPE svg PUBLIC "-//W3C//DTD SVG 1.1//EN" "http://www.w3.org/Graphics/SVG/1.1/DTD/svg11.dtd">
<svg version="1.1" id="Layer_1" xmlns="http://www.w3.org/2000/svg" xmlns:xlink="http://www.w3.org/1999/xlink" x="0px" y="0px"
	 width="125.667px" height="133.666px" viewBox="0 0 125.667 133.666" enable-background="new 0 0 125.667 133.666"
	 xml:space="preserve">
<pattern  x="-416.667" y="347.333" width="125.994" height="125.994" patternUnits="userSpaceOnUse" id="New_Pattern_Swatch_1" viewBox="0 -125.994 125.994 125.994" overflow="visible">
	<g>
		<polygon fill="none" points="0,0 125.994,0 125.994,-125.994 0,-125.994 		"/>
		<g>
			<polygon fill="none" points="0,0 125.994,0 125.994,-125.994 0,-125.994 			"/>
			<polygon fill="#5C86AC" points="125.994,-125.994 0,-125.994 0,0 125.994,0 			"/>
		</g>
	</g>
</pattern>
<g>
	<pattern  id="SVGID_1_" xlink:href="#New_Pattern_Swatch_1" patternTransform="matrix(1 0 0 -1 516.0112 -16838.3086)">
	</pattern>
	<path fill="#FFFFFF" stroke="url(#SVGID_1_)" stroke-width="4.6915" stroke-miterlimit="10" d="M1393.222,2861.755
		c0,14.062-11.404,25.463-25.467,25.463l0,0c-14.066,0-25.467-11.402-25.467-25.463v-10.858c0-14.062,11.398-25.466,25.467-25.466
		l0,0c14.062,0,25.467,11.404,25.467,25.466V2861.755z"/>
	<pattern  id="SVGID_2_" xlink:href="#New_Pattern_Swatch_1" patternTransform="matrix(1 0 0 -1 516.0112 -16838.3086)">
	</pattern>
	<path fill="#DAE7EB" stroke="url(#SVGID_2_)" stroke-miterlimit="10" d="M1380.63,2855.335c0,9.229-3.48,16.709-12.709,16.709
		s-13.354-7.479-13.354-16.709s4.125-16.709,13.354-16.709S1380.63,2846.107,1380.63,2855.335z"/>
	<g>
		<pattern  id="SVGID_3_" xlink:href="#New_Pattern_Swatch_1" patternTransform="matrix(1 0 0 -1 516.0112 -16838.3086)">
		</pattern>
		<path fill="none" stroke="url(#SVGID_3_)" stroke-width="4.6915" stroke-miterlimit="10" d="M1367.755,2874.214
			c-6.871,0-12.463-5.588-12.463-12.459v-10.858c0-6.871,5.592-12.461,12.463-12.461s12.463,5.59,12.463,12.461v10.858
			C1380.218,2868.626,1374.626,2874.214,1367.755,2874.214z"/>
	</g>
	<pattern  id="SVGID_4_" xlink:href="#New_Pattern_Swatch_1" patternTransform="matrix(1 0 0 -1 516.0112 -16838.3086)">
	</pattern>
	<path fill="#FFFFFF" stroke="url(#SVGID_4_)" stroke-width="4.692" stroke-linejoin="round" stroke-miterlimit="10" d="
		M1412.396,2877.316c0-12.23-9.914-22.146-22.146-22.146c-10.059,0-18.545,6.709-21.244,15.893
		c-2.701-9.184-11.188-15.893-21.246-15.893c-12.229,0-22.145,9.916-22.145,22.146c0,5.498,2.008,10.522,5.322,14.395l0,0v0.002
		c0.627,0.73,1.297,1.422,2.012,2.066l36.959,37.981l37.506-40.42l-0.141,0.139
		C1410.472,2887.64,1412.396,2882.703,1412.396,2877.316z"/>
</g>
<g>
	<g>
		<path fill="#FFFFFF" d="M62.223,17.065c-13.816,0-25.057,11.239-25.057,25.054v5.882h9.01V42.12
			c0-8.847,7.198-16.045,16.047-16.045S78.27,33.272,78.27,42.12v5.882h9.009V42.12C87.279,28.305,76.039,17.065,62.223,17.065z"/>
		<path fill="#3085B5" d="M62.223,26.075c-8.849,0-16.047,7.198-16.047,16.045v5.882h5.084V42.12
			c0-6.044,4.918-10.961,10.963-10.961s10.963,4.917,10.963,10.961v5.882h5.084V42.12C78.27,33.272,71.072,26.075,62.223,26.075z"/>
		<path fill="#3085B5" d="M62.223,11.981c-16.619,0-30.141,13.52-30.141,30.138v5.882h2.542h2.542V42.12
			c0-13.815,11.24-25.054,25.057-25.054c13.815,0,25.056,11.239,25.056,25.054v5.882h2.542h2.542V42.12
			C92.363,25.501,78.842,11.981,62.223,11.981z"/>
	</g>
	<path fill="#FFFFFF" stroke="#3085B5" stroke-width="4.692" stroke-linejoin="round" stroke-miterlimit="10" d="M105.614,65.553
		c0-12.229-9.914-22.146-22.146-22.146c-10.06,0-18.545,6.709-21.245,15.893c-2.7-9.184-11.188-15.893-21.245-15.893
		c-12.23,0-22.146,9.916-22.146,22.146c0,5.498,2.007,10.523,5.322,14.395l0,0l0.001,0.002c0.626,0.73,1.295,1.422,2.011,2.066
		l36.959,37.981l37.506-40.42l-0.139,0.139C103.69,75.876,105.614,70.939,105.614,65.553z"/>
</g>
</svg>
