<svg xmlns="http://www.w3.org/2000/svg" width="124" height="133.666" viewBox="0 0 124 133.666"><g stroke="#3085B5" stroke-width="2.967" stroke-miterlimit="10" fill="none"><path d="M61.877 18.652v54.287M20.928 103.25v-16.661M74.084 72.939h16.66M30.308 72.939h21.204M30.308 112.525h21.204M61.877 72.939l37.117 34.66"/></g><circle fill="#fff" stroke="#3085B5" stroke-width="3.953" stroke-miterlimit="10" cx="61.877" cy="30.933" r="20.053"/><path fill="#3085B5" d="M59.083 31.183c.001-1.543 1.254-2.791 2.798-2.791 1.543.004 2.793 1.258 2.791 2.801-.003 1.541-1.257 2.793-2.8 2.789-1.543-.002-2.792-1.256-2.789-2.799zM57.061 24.208c.268 0 .536.102.741.309.408.41.407 1.074-.002 1.484-3.56 3.543-3.566 7.301-.021 10.861.41.406.409 1.072-.002 1.48-.411.408-1.074.408-1.484-.002-4.384-4.402-4.375-9.443.025-13.828.205-.204.474-.304.743-.304zM54.15 18.943c.268.004.536.105.739.309.411.412.409 1.076-.001 1.486-6.505 6.479-6.52 14.873-.039 21.377.409.41.409 1.076-.003 1.482-.409.41-1.073.41-1.482-.004-7.268-7.291-7.251-17.074.042-24.344.206-.203.474-.306.744-.306zM66.718 24.226c.268 0 .536.104.742.309 4.384 4.402 4.376 9.441-.024 13.824-.411.412-1.076.412-1.485-.002-.41-.408-.407-1.074.001-1.482 3.559-3.545 3.566-7.299.021-10.859-.409-.41-.408-1.072.002-1.484.206-.204.475-.306.743-.306zM69.647 18.97c.268.002.536.104.741.311 7.269 7.293 7.251 17.078-.041 24.346-.413.408-1.076.406-1.484-.004-.41-.41-.408-1.076.002-1.482 6.503-6.482 6.518-14.875.038-21.381-.409-.408-.408-1.074.002-1.48.205-.208.472-.31.742-.31z"/><path fill="#fff" stroke="#3085B5" stroke-width="3.953" stroke-miterlimit="10" d="M11.92 60.099h25.71v25.709h-25.71zM12.076 94.744h25.71v25.709h-25.71zM86 60.099h25.71v25.709h-25.71zM49.014 94.744h25.71v25.709h-25.71zM48.96 60.099h25.71v25.709h-25.71zM86.139 94.744h25.71v25.711h-25.71z"/></svg>