<?xml version="1.0" encoding="utf-8"?>
<!-- Generator: Adobe Illustrator 16.0.4, SVG Export Plug-In . SVG Version: 6.00 Build 0)  -->
<!DOCTYPE svg PUBLIC "-//W3C//DTD SVG 1.1//EN" "http://www.w3.org/Graphics/SVG/1.1/DTD/svg11.dtd">
<svg version="1.1" id="Layer_1" xmlns="http://www.w3.org/2000/svg" xmlns:xlink="http://www.w3.org/1999/xlink" x="0px" y="0px"
	 width="124px" height="133.666px" viewBox="0 0 124 133.666" enable-background="new 0 0 124 133.666" xml:space="preserve">
<g>
	<g>
		
			<line fill="none" stroke="#3085B5" stroke-width="2.9671" stroke-miterlimit="10" x1="61.877" y1="18.652" x2="61.877" y2="72.939"/>
		
			<line fill="none" stroke="#3085B5" stroke-width="2.9671" stroke-miterlimit="10" x1="20.928" y1="103.25" x2="20.928" y2="86.589"/>
		
			<line fill="none" stroke="#3085B5" stroke-width="2.9671" stroke-miterlimit="10" x1="74.084" y1="72.939" x2="90.744" y2="72.939"/>
		
			<line fill="none" stroke="#3085B5" stroke-width="2.9671" stroke-miterlimit="10" x1="30.308" y1="72.939" x2="51.512" y2="72.939"/>
		
			<line fill="none" stroke="#3085B5" stroke-width="2.9671" stroke-miterlimit="10" x1="30.308" y1="112.525" x2="51.512" y2="112.525"/>
		
			<line fill="none" stroke="#3085B5" stroke-width="2.9671" stroke-miterlimit="10" x1="61.877" y1="72.939" x2="98.994" y2="107.599"/>
	</g>
	<circle fill="#FFFFFF" stroke="#3085B5" stroke-width="3.9533" stroke-miterlimit="10" cx="61.877" cy="30.933" r="20.053"/>
	<g>
		<g>
			<path fill="#3085B5" d="M59.083,31.183c0.001-1.543,1.254-2.791,2.798-2.791c1.543,0.004,2.793,1.258,2.791,2.801
				c-0.003,1.541-1.257,2.793-2.8,2.789C60.329,33.98,59.08,32.726,59.083,31.183z"/>
		</g>
		<g>
			<path fill="#3085B5" d="M57.061,24.208c0.268,0,0.536,0.102,0.741,0.309c0.408,0.41,0.407,1.074-0.002,1.484
				c-3.56,3.543-3.566,7.301-0.021,10.861c0.41,0.406,0.409,1.072-0.002,1.48c-0.411,0.408-1.074,0.408-1.484-0.002
				c-4.384-4.402-4.375-9.443,0.025-13.828C56.523,24.308,56.792,24.208,57.061,24.208z"/>
		</g>
		<g>
			<path fill="#3085B5" d="M54.15,18.943c0.268,0.004,0.536,0.105,0.739,0.309c0.411,0.412,0.409,1.076-0.001,1.486
				c-6.505,6.479-6.52,14.873-0.039,21.377c0.409,0.41,0.409,1.076-0.003,1.482c-0.409,0.41-1.073,0.41-1.482-0.004
				c-7.268-7.291-7.251-17.074,0.042-24.344C53.612,19.046,53.88,18.943,54.15,18.943z"/>
		</g>
		<g>
			<path fill="#3085B5" d="M66.718,24.226c0.268,0,0.536,0.104,0.742,0.309c4.384,4.402,4.376,9.441-0.024,13.824
				c-0.411,0.412-1.076,0.412-1.485-0.002c-0.41-0.408-0.407-1.074,0.001-1.482c3.559-3.545,3.566-7.299,0.021-10.859
				c-0.409-0.41-0.408-1.072,0.002-1.484C66.181,24.328,66.45,24.226,66.718,24.226z"/>
		</g>
		<g>
			<path fill="#3085B5" d="M69.647,18.97c0.268,0.002,0.536,0.104,0.741,0.311c7.269,7.293,7.251,17.078-0.041,24.346
				c-0.413,0.408-1.076,0.406-1.484-0.004c-0.41-0.41-0.408-1.076,0.002-1.482c6.503-6.482,6.518-14.875,0.038-21.381
				c-0.409-0.408-0.408-1.074,0.002-1.48C69.11,19.072,69.377,18.97,69.647,18.97z"/>
		</g>
	</g>
	
		<rect x="11.92" y="60.099" fill="#FFFFFF" stroke="#3085B5" stroke-width="3.9533" stroke-miterlimit="10" width="25.71" height="25.709"/>
	
		<rect x="12.076" y="94.744" fill="#FFFFFF" stroke="#3085B5" stroke-width="3.9533" stroke-miterlimit="10" width="25.71" height="25.709"/>
	
		<rect x="86" y="60.099" fill="#FFFFFF" stroke="#3085B5" stroke-width="3.9533" stroke-miterlimit="10" width="25.71" height="25.709"/>
	
		<rect x="49.014" y="94.744" fill="#FFFFFF" stroke="#3085B5" stroke-width="3.9533" stroke-miterlimit="10" width="25.71" height="25.709"/>
	
		<rect x="48.96" y="60.099" fill="#FFFFFF" stroke="#3085B5" stroke-width="3.9533" stroke-miterlimit="10" width="25.71" height="25.709"/>
	
		<rect x="86.139" y="94.744" fill="#FFFFFF" stroke="#3085B5" stroke-width="3.9533" stroke-miterlimit="10" width="25.71" height="25.711"/>
</g>
</svg>
