<svg xmlns="http://www.w3.org/2000/svg" width="125.667" height="133.666" viewBox="0 0 125.667 133.666"><pattern x="-416.667" y="347.333" width="125.994" height="125.994" patternUnits="userSpaceOnUse" viewBox="0 -125.994 125.994 125.994" overflow="visible"><path fill="none" d="M0 0h125.994v-125.994h-125.994zM0 0h125.994v-125.994h-125.994z"/><path fill="#5C86AC" d="M125.994-125.994h-125.994v125.994h125.994z"/></pattern><path fill="#fff" stroke="url(#SVGID_1_)" stroke-width="4.691" stroke-miterlimit="10" d="M1393.222 2861.755c0 14.062-11.404 25.463-25.467 25.463-14.066 0-25.467-11.402-25.467-25.463v-10.858c0-14.062 11.398-25.466 25.467-25.466 14.062 0 25.467 11.404 25.467 25.466v10.858z"/><path fill="#DAE7EB" stroke="url(#SVGID_2_)" stroke-miterlimit="10" d="M1380.63 2855.335c0 9.229-3.48 16.709-12.709 16.709s-13.354-7.479-13.354-16.709 4.125-16.709 13.354-16.709 12.709 7.481 12.709 16.709z"/><path stroke="url(#SVGID_3_)" stroke-width="4.691" stroke-miterlimit="10" d="M1367.755 2874.214c-6.871 0-12.463-5.588-12.463-12.459v-10.858c0-6.871 5.592-12.461 12.463-12.461s12.463 5.59 12.463 12.461v10.858c0 6.871-5.592 12.459-12.463 12.459z" fill="none"/><path fill="#fff" stroke="url(#SVGID_4_)" stroke-width="4.692" stroke-linejoin="round" stroke-miterlimit="10" d="M1412.396 2877.316c0-12.23-9.914-22.146-22.146-22.146-10.059 0-18.545 6.709-21.244 15.893-2.701-9.184-11.188-15.893-21.246-15.893-12.229 0-22.145 9.916-22.145 22.146 0 5.498 2.008 10.522 5.322 14.395v.002c.627.73 1.297 1.422 2.012 2.066l36.959 37.981 37.506-40.42-.141.139c3.199-3.839 5.123-8.776 5.123-14.163z"/><path fill="#fff" d="M62.223 17.065c-13.816 0-25.057 11.239-25.057 25.054v5.882h9.01v-5.881c0-8.847 7.198-16.045 16.047-16.045s16.047 7.197 16.047 16.045v5.882h9.009v-5.882c0-13.815-11.24-25.055-25.056-25.055z"/><path fill="#3085B5" d="M62.223 26.075c-8.849 0-16.047 7.198-16.047 16.045v5.882h5.084v-5.882c0-6.044 4.918-10.961 10.963-10.961s10.963 4.917 10.963 10.961v5.882h5.084v-5.882c0-8.848-7.198-16.045-16.047-16.045zM62.223 11.981c-16.619 0-30.141 13.52-30.141 30.138v5.882h5.084v-5.881c0-13.815 11.24-25.054 25.057-25.054 13.815 0 25.056 11.239 25.056 25.054v5.882h5.084v-5.882c0-16.619-13.521-30.139-30.14-30.139z"/><path fill="#fff" stroke="#3085B5" stroke-width="4.692" stroke-linejoin="round" stroke-miterlimit="10" d="M105.614 65.553c0-12.229-9.914-22.146-22.146-22.146-10.06 0-18.545 6.709-21.245 15.893-2.7-9.184-11.188-15.893-21.245-15.893-12.23 0-22.146 9.916-22.146 22.146 0 5.498 2.007 10.523 5.322 14.395l.001.002c.626.73 1.295 1.422 2.011 2.066l36.959 37.981 37.506-40.42-.139.139c3.198-3.84 5.122-8.777 5.122-14.163z"/></svg>