<?xml version="1.0" encoding="utf-8"?>
<!-- Generator: Adobe Illustrator 16.0.4, SVG Export Plug-In . SVG Version: 6.00 Build 0)  -->
<!DOCTYPE svg PUBLIC "-//W3C//DTD SVG 1.1//EN" "http://www.w3.org/Graphics/SVG/1.1/DTD/svg11.dtd">
<svg version="1.1" id="Layer_1" xmlns="http://www.w3.org/2000/svg" xmlns:xlink="http://www.w3.org/1999/xlink" x="0px" y="0px"
	 width="125.667px" height="133.666px" viewBox="0 0 125.667 133.666" enable-background="new 0 0 125.667 133.666"
	 xml:space="preserve">
<g>
	<path fill="#FFFFFF" d="M61.896,16.989c-13.816,0-25.057,11.239-25.057,25.054v5.882h9.01v-5.882
		c0-8.847,7.198-16.045,16.047-16.045s16.047,7.198,16.047,16.045v5.882h9.009v-5.882C86.952,28.228,75.711,16.989,61.896,16.989z"
		/>
	<path fill="#3085B5" d="M61.896,25.998c-8.849,0-16.047,7.198-16.047,16.045v5.882h5.084v-5.882
		c0-6.044,4.918-10.961,10.963-10.961s10.963,4.917,10.963,10.961v5.882h5.084v-5.882C77.943,33.196,70.745,25.998,61.896,25.998z"
		/>
	<path fill="#3085B5" d="M61.896,11.905c-16.619,0-30.141,13.52-30.141,30.138v5.882h2.542h2.542v-5.882
		c0-13.815,11.24-25.054,25.057-25.054c13.815,0,25.056,11.239,25.056,25.054v5.882h2.542h2.542v-5.882
		C92.036,25.425,78.515,11.905,61.896,11.905z"/>
</g>
<rect x="26.306" y="48.271" fill="#FFFFFF" stroke="#3085B5" stroke-width="4.8826" stroke-miterlimit="10" width="71.178" height="65.648"/>
<line fill="none" stroke="#3085B5" stroke-width="3.122" stroke-miterlimit="10" x1="38.703" y1="86.765" x2="55.317" y2="72.192"/>
<line fill="none" stroke="#3085B5" stroke-width="3.122" stroke-miterlimit="10" x1="55.317" y1="72.192" x2="69.935" y2="94.341"/>
<line fill="none" stroke="#3085B5" stroke-width="3.122" stroke-miterlimit="10" x1="69.935" y1="94.341" x2="83.482" y2="80.403"/>
<path fill="#FFFFFF" stroke="#3085B5" stroke-width="4.1552" stroke-miterlimit="10" d="M43.077,86.774
	c0,2.582-2.099,4.683-4.689,4.683c-2.586,0-4.689-2.101-4.689-4.683c0-2.592,2.104-4.688,4.689-4.688
	C40.978,82.087,43.077,84.183,43.077,86.774z"/>
<path fill="#FFFFFF" stroke="#3085B5" stroke-width="4.1552" stroke-miterlimit="10" d="M60.001,72.199
	c0,2.586-2.098,4.682-4.689,4.682c-2.583,0-4.685-2.096-4.685-4.682c0-2.587,2.102-4.688,4.685-4.688
	C57.904,67.511,60.001,69.612,60.001,72.199z"/>
<path fill="#FFFFFF" stroke="#3085B5" stroke-width="4.1552" stroke-miterlimit="10" d="M74.625,94.341
	c0,2.585-2.096,4.682-4.688,4.682c-2.586,0-4.688-2.097-4.688-4.682c0-2.59,2.104-4.688,4.688-4.688
	C72.529,89.653,74.625,91.751,74.625,94.341z"/>
<path fill="#FFFFFF" stroke="#3085B5" stroke-width="4.1552" stroke-miterlimit="10" d="M88.167,80.403
	c0,2.582-2.1,4.683-4.691,4.683c-2.584,0-4.682-2.101-4.682-4.683c0-2.59,2.098-4.688,4.682-4.688
	C86.07,75.714,88.167,77.813,88.167,80.403z"/>
</svg>
