<svg xmlns="http://www.w3.org/2000/svg" width="125.667" height="133.666" viewBox="0 0 125.667 133.666"><path fill="#fff" d="M61.896 16.989c-13.816 0-25.057 11.239-25.057 25.054v5.882h9.01v-5.882c0-8.847 7.198-16.045 16.047-16.045s16.047 7.198 16.047 16.045v5.882h9.009v-5.882c0-13.815-11.241-25.054-25.056-25.054z"/><path fill="#3085B5" d="M61.896 25.998c-8.849 0-16.047 7.198-16.047 16.045v5.882h5.084v-5.882c0-6.044 4.918-10.961 10.963-10.961s10.963 4.917 10.963 10.961v5.882h5.084v-5.882c0-8.847-7.198-16.045-16.047-16.045zM61.896 11.905c-16.619 0-30.141 13.52-30.141 30.138v5.882h5.084v-5.882c0-13.815 11.24-25.054 25.057-25.054 13.815 0 25.056 11.239 25.056 25.054v5.882h5.084v-5.882c0-16.618-13.521-30.138-30.14-30.138z"/><path fill="#fff" stroke="#3085B5" stroke-width="4.883" stroke-miterlimit="10" d="M26.306 48.271h71.178v65.648h-71.178z"/><path stroke="#3085B5" stroke-width="3.122" stroke-miterlimit="10" fill="none" d="M38.703 86.765l16.614-14.573M55.317 72.192l14.618 22.149M69.935 94.341l13.547-13.938"/><path fill="#fff" stroke="#3085B5" stroke-width="4.155" stroke-miterlimit="10" d="M43.077 86.774c0 2.582-2.099 4.683-4.689 4.683-2.586 0-4.689-2.101-4.689-4.683 0-2.592 2.104-4.688 4.689-4.688 2.59.001 4.689 2.097 4.689 4.688zM60.001 72.199c0 2.586-2.098 4.682-4.689 4.682-2.583 0-4.685-2.096-4.685-4.682 0-2.587 2.102-4.688 4.685-4.688 2.592 0 4.689 2.101 4.689 4.688zM74.625 94.341c0 2.585-2.096 4.682-4.688 4.682-2.586 0-4.688-2.097-4.688-4.682 0-2.59 2.104-4.688 4.688-4.688 2.592 0 4.688 2.098 4.688 4.688zM88.167 80.403c0 2.582-2.1 4.683-4.691 4.683-2.584 0-4.682-2.101-4.682-4.683 0-2.59 2.098-4.688 4.682-4.688 2.594-.001 4.691 2.098 4.691 4.688z"/></svg>