<svg xmlns="http://www.w3.org/2000/svg" width="151.333" height="133.666" viewBox="0 0 151.333 133.666"><g stroke="#3085B5" stroke-width="4" stroke-miterlimit="10"><path fill="none" d="M19.537 94.672l41.651-36.532M61.188 58.14l36.648 55.528M97.836 113.668l33.961-68.563"/><path fill="#fff" d="M140.374 45.112c0 4.726-3.84 8.567-8.587 8.567-4.728 0-8.566-3.841-8.566-8.567 0-4.739 3.839-8.581 8.566-8.581 4.747 0 8.587 3.842 8.587 8.581zM105.865 113.674c0 4.725-3.841 8.566-8.587 8.566-4.729 0-8.566-3.842-8.566-8.566 0-4.74 3.838-8.582 8.566-8.582 4.746 0 8.587 3.842 8.587 8.582zM69.765 57.218c0 4.727-3.84 8.566-8.587 8.566-4.729 0-8.566-3.84-8.566-8.566 0-4.738 3.838-8.581 8.566-8.581 4.747 0 8.587 3.842 8.587 8.581zM28.114 95.227c0 4.725-3.841 8.566-8.587 8.566-4.729 0-8.567-3.842-8.567-8.566 0-4.74 3.839-8.582 8.567-8.582 4.746 0 8.587 3.842 8.587 8.582z"/><path fill="none" d="M19.537 36.531l39.76-11.159M59.297 25.372l37.991 44.771M97.288 70.143l34.508 24.529"/><path fill="#fff" d="M28.114 36.538c0 4.725-3.841 8.567-8.587 8.567-4.729 0-8.567-3.843-8.567-8.567 0-4.739 3.839-8.581 8.567-8.581 4.746 0 8.587 3.841 8.587 8.581zM67.875 25.378c0 4.725-3.84 8.566-8.587 8.566-4.729 0-8.566-3.842-8.566-8.566 0-4.739 3.838-8.582 8.566-8.582 4.747 0 8.587 3.843 8.587 8.582zM105.865 70.149c0 4.725-3.841 8.568-8.587 8.568-4.729 0-8.566-3.844-8.566-8.568 0-4.738 3.838-8.582 8.566-8.582 4.746 0 8.587 3.844 8.587 8.582zM140.374 94.68c0 4.725-3.84 8.568-8.587 8.568-4.728 0-8.566-3.844-8.566-8.568 0-4.738 3.839-8.582 8.566-8.582 4.747 0 8.587 3.844 8.587 8.582z"/></g></svg>